<?xml version="1.0" encoding="utf-8"?>
<!-- Generator: Adobe Illustrator 22.1.0, SVG Export Plug-In . SVG Version: 6.00 Build 0)  -->
<svg version="1.1" id="Calque_1" xmlns="http://www.w3.org/2000/svg" xmlns:xlink="http://www.w3.org/1999/xlink" x="0px" y="0px"
	 viewBox="0 0 2658 713" style="enable-background:new 0 0 2658 713;" xml:space="preserve">
<style type="text/css">
	.st0{fill:#FFFFFF;}
</style>
<path class="st0" d="M1494.7,0c0.6,0,2,0,2.7,0c0,89.8,0,179.6,0,269.3c-0.2,1.5,0.4,3.8,2.2,3.6c7.7,0.1,15.4,0,23.2-0.1
	c0,11.7-0.1,23.4,0.1,35.1c-0.1,4.9,3.3,8.2,6.2,11.2c0,17.1,0,34.2,0,51.3c0,4-0.5,8.3,1.3,12c10.4-0.1,20.9,0,31.3,0
	c0.1-26.2-0.2-52.6,0.1-78.8c0.3-0.4,1-1.2,1.3-1.5c3.7-0.4,7.4,0,11.1-0.1c0.1-4.3-0.2-8.5,0.1-12.7c0.3-0.4,1-1.2,1.3-1.5
	c6.5,0.1,13.4-1.2,19.7,0.9c0.5-0.4,1.5-0.9,2-1.3c-0.2-5.9-0.1-11.9-0.1-17.8c5.1-0.1,10.3,0.2,15.4-0.1c3-2.7,0.9-8.1,1.5-11.9
	c7.2,0.4,14.5-0.7,21.7,0.5c7.6,7.9,14.5,16.7,21.9,24.8c3.3,0.1,6.7,0,10.1-0.4c0,33.3,0,66.8,0,100.1h26c0.3-0.8,1-2.4,1.3-3.2
	c0.1-26.2,0-52.3,0.1-78.5c4.2,0,8.4,0,12.6,0c0.4-3.4-1.5-8.3,1.5-10.7c6.9-0.4,13.8,0,20.7-0.1c0.4,4-1,8.8,0.6,12.5
	c3.2,1.9,7.3,0.4,10.9,0.8c0,14.6-0.1,29.2,0.1,43.8c1.7-0.8,3.3-2,4.5-3.7c2.6-4,6.3-6.8,9.2-10.6c0-14.6,0-29.3,0-43.9
	c-0.2-12.8,0.5-25.7-0.4-38.6c7.3,0.2,14.6-0.4,21.9,0.2c3.5,1.4,5.1,6.1,8,8.5c0.1,14.7,0,29.4,0.1,44.1c3.8,3.6,7.2,7.8,10.7,11.7
	c1.6,1.5,2,3.9,2,6.3c0,20.4,0,40.8,0,61.3h26.3c0-50.5,0-101,0-151.5c10.9,0,21.7,0,32.6,0c0.1,21.8-0.2,43.8,0.1,65.7
	c0.3,0.4,0.9,1.2,1.2,1.5c4.8,0.5,9.6,0,14.3,0.1c0,10.2-0.1,20.3,0,30.5c0.3,0.7,1,2.3,1.3,3c3.6,2,5.2,6.6,8.6,9
	c1.2,2,2.7,3.8,4.2,5.6c3.8,0,7.7,0,11.6,0c2.9-3.4,5.8-6.9,8.9-10.1c0-11.9,0-23.7,0-35.6c9.4,0,18.8,0,28.2,0
	c0,7.8-0.1,15.7,0.1,23.6c3.5,3.7,6.9,7.8,10.4,11.6c2.2,2.5,4.7,4.7,5.9,7.9c0.6,0.1,2,0.2,2.6,0.4c0.2,5.3-0.2,10.8,0.2,16.1
	c0.3,0.4,1,1.2,1.3,1.5c12.1,0.4,24.4,0,36.5,0.1c0.1-18.3-0.1-36.5,0-54.8c0.3-0.4,1-1.2,1.3-1.5c9.7-0.4,19.3,0,29-0.1
	c0-13.2,0-26.5,0-39.6h41c0,21.2,0,42.5,0,63.7c7.7,0,15.5,0,23.2,0c0-6.3,0-12.5,0-18.7c2.3-2.4,5-4.3,6.7-7.2
	c0.7-1.1,1.1-2.8,2.6-2.7c7.6-0.5,15.2,0,22.7-0.1c3.1-3.7,6.3-7.1,9.4-10.8c7.9,0,15.8,0,23.7,0c0,21.2,0,42.5,0,63.7h23.2
	c0.1-18.7-0.2-37.6,0.1-56.4c0.3-0.2,0.9-0.7,1.2-0.9c6.2-0.6,12.5,0.7,18.6-0.4c0-4.9-0.6-9.8,0.9-14.6c7.7,0.2,15.5-0.1,23.2,0.1
	c1.5-0.1,2.4,1.9,2.2,3.4c0,22.9,0,45.8,0,68.6c7,0,14,0,21,0c1.3,0.2,3.3-0.5,3.2-2.5c0.2-10-0.2-20,0.1-30c1-4.7,4.9-7.7,7.3-11.5
	c0.1-23.8,0-47.7,0-71.5c9.1,0,18.3,0,27.4,0c0,21.7,0.1,43.3-0.1,65c7.5,1.3,15.2-0.5,22.7,0.6c4.6,2.1,7.4,7.1,11,10.7
	c0,18.6,0,37.3,0,56c4.9,0,9.8,0,14.7,0c0-36.1,0-72.1,0-108.2c11.2,0,22.4-0.1,33.7,0c1.7-0.2,2.1,2.1,2,3.6
	c0,18-0.1,36.1,0.1,54.1c6.3,0,12.7,0,19,0c0,20.9,0,41.6,0,62.5c16.8,0,33.6-0.1,50.6,0.1c1.1-4.7,0.5-9.6,0.8-14.5
	c0.5-23.6,0.3-47.3-0.4-70.9c-0.3-30-0.3-60-0.2-89.9c4.8-0.2,9.7-0.2,14.5-0.2c0-4,0-8.1,0-12c4.9,0,9.8,0.1,14.7,0
	c0,3.2,0,6.4,0,9.6h9.4c0,30,0,60.1,0,90.2h25.2c0-8.2,0-16.5,0-24.7c3-3.3,5.9-6.8,8.9-10.2c6.5,0,13,0,19.5,0
	c0,32.6-0.1,65.2,0.1,97.9c0.3,0.8,1,2.4,1.3,3.2c2.6-0.4,6.2,1.3,7.9-1.7c0.5-5.5-0.3-10.9,0.3-16.4c3-4.9,7.4-8.7,10.8-13.2
	c3.7-0.1,7.4-0.1,11.1,0c0-27.6,0-55.3,0-83c-0.3-3,1.1-5.6,3.1-7.4c3.5-3.6,6.3-7.9,10.2-11c1.1-1.8,2.1-4.7,4.6-4.3
	c6.6-0.1,13.4,0,20,0c0,51.8-0.1,103.7,0.1,155.5c0.3,0.8,1,2.4,1.3,3.2h31.1c0-27.3,0-54.5,0-81.7c9.9,0,19.6,0,29.5,0V713H0V382.4
	h9.4c0.1-31.2-0.1-62.5,0.1-93.7c3.1-0.1,6.2-0.1,9.3-0.1c0-2.1,0-4.3,0.1-6.4c0.3-0.8,1-2.4,1.3-3.2c5.5,0,11,0,16.4,0
	c0,30,0,60.1,0,90.2c0,4.4-0.4,9,0.8,13.3c4.5-0.2,8.9,0.2,13.4-0.2c0.3-0.4,1-1.2,1.3-1.5c0.3-26.7,0-53.4,0.1-80.1
	c7.4,0,14.7,0,22.1,0c0-27.3,0-54.6,0-81.7c3.3,0,6.7,0.2,10.1-0.1c3-2.7,0.9-8.1,1.5-11.9c8,0,16.1-0.1,24.1,0.1
	c0.1,3.6,0.1,7.1,0.1,10.7c2.5,0,5,0,7.5,0c0,40.9,0,81.7,0,122.7c0,2.1,0.3,4.4,0.6,6.5c12.5-0.4,24.8,0.2,37.3-0.2
	c0.1,11.4-0.2,22.8,0.1,34c0.3,0.4,1,1.2,1.3,1.5c8.9,0.4,18,0,26.9,0.1c0.2-29.4-0.3-59,0.2-88.4c1.7-0.1,3.3-0.2,5.1-0.2
	c0.1-3.9-0.2-7.9,0.1-11.9c2.3-3.3,6.7-1.1,10-1.7c0.4-4.4,0.4-8.8,0.3-13.3c7.3,0,14.6,0,21.9,0c2.2,4.4,1.1,9.6,1.3,14.5
	c2.1,0,4.3,0,6.3,0c0,33.7,0,67.3,0,101h47.3v-14.5c3.7-0.7,8.7,1.9,11.4-1.7c0.2-28.2,0.2-56.6,0-84.8h23.8
	c4.7-2.7,7.8-7.8,11.5-12c7.9-0.2,15.9-0.1,23.8-0.1c0.1,17.2-0.1,34.4,0.1,51.6c6.2,0.1,12.6,0.1,18.8,0.1c0-15.2,0-30.5,0-45.7
	c5.6,0,11.2,0,16.8,0v-9.6c9-1.1,18.3-0.8,27.4-0.1c0.1,4.7-0.3,9.4,0.1,14.1c2.6,3.6,7.7,0.9,11.3,1.9c0.2,6.4,0.1,12.7,0.1,19.1
	c3.8,0,7.7,0,11.6,0c0,15.7,0,31.3,0,46.9c3,0,6-0.2,9,0.1c2.1,1.1,1.6,3.8,1.5,5.8c-1,9.6,0.5,19.2,0,28.8
	c7.9-0.1,15.9,0.2,23.8-0.1c2.1-1.1,1.5-3.8,1.6-5.8c-0.2-5.2,0.5-10.6-0.7-15.8c4,0.1,8.2,0,12.3,0c0-63.7,0-127.5,0-191.2
	c3.5-0.6,7.1-0.6,10.6-1.1c0.1-4.6-0.3-9.4,0.1-14c0.7-1.9,2.6-1.8,4-1.8c14.4,0.1,28.8,0,43.2,0.1c0,64.1,0,128.2,0,192.3h35.8
	c0-12.8,0-25.6,0-38.4c-0.1-2,0.4-3.9,1-5.8c8.1,0.4,16.2,0.4,24.2,0c0-26.9,0-53.9,0-80.8c0.1-3.1-0.5-6.3,0.8-9.1
	c0.1-0.6,0.2-1.7,0.3-2.3c2.4-4,6.1-6.5,8.8-10.2c10.5,0,21.1-0.1,31.6,0.1c1.1,0.9,2.2,1.9,3.3,3c1.9,2.8,3.9,5.5,6.2,7.8
	c4.4,0,8.8,0,13.2,0c0,22.4,0,44.8,0,67.4c2.2,0,4.4,0,6.5,0c0.5,2.4,0.9,4.7,0.8,7.2c-0.1,12.5,0,24.8,0,37.3c6.3,0,12.7,0,19,0
	c1.9,0.1,3.5-0.6,5.2-1.4c-0.1-79.7,0-159.4-0.1-239.2c-0.4-3.7,2.7-5.7,4.6-8.1c12.4-14,24.5-28.1,36.9-42.1c1-1.5,2.9-1.4,4.5-1.7
	c0.2,8.9,0.9,17.9-0.2,26.8c0.2,0.6,0.7,1.7,0.9,2.3c10.8,0,21.6,0,32.4,0c0,52.6,0,105,0,157.5c-0.2,1.5,0.6,3.6,2.2,3.4
	c5.6,0.2,11.2,0,16.7,0c0-18-0.1-36.2,0-54.2c-0.2-3.6,2.7-5.6,4.7-7.7c2.5-3,5-5.9,7.3-9c12.9,0,25.6,0,38.5,0
	c0,59,0,117.8,0,176.8c7.7,0,15.5,0,23.3,0c0,18.6-0.2,37.4,0.1,56c0.3,0.4,1,1.2,1.3,1.7c11.1,0.4,22.1,0,33.2,0.1
	c0-9.6,0-19.2,0-28.8c4,0,8.1,0,12.1,0c0.9-2.4,3-3.6,3.9-5.8c0.3-0.1,0.9-0.2,1.2-0.4c0.6-1.5,1.3-3.3,3.2-3.2
	c5.4-0.5,10.8,0,16.2-0.2c0-26.8,0-53.6,0-80.4c0.1-3.1-0.6-6.5,0.9-9.3c0.1-1.5,0.1-3.2,0.2-4.7c1.5-0.7,2.5-2.3,3.6-3.4
	c1.2-1.8,2.6-3.4,4.3-4.7c1.5-2.3,3.6-3.9,5.1-6.2c1.1-1.2,2.2-2.3,3.3-3.4c1.1-1.5,2.5-2.8,3.8-4.2c12.8-0.1,25.5-0.2,38.3,0
	c0.3,0.4,1,1.2,1.3,1.5c0.5,4.9-0.2,9.7,0.2,14.6l1.3,1.5c9.3,0.4,18.6,0,27.9,0.1c0,44.6,0,89.2,0,133.8c1.5-0.2,3.2-0.1,3.5-2.3
	c1.7-1.3,3.1-3,4.3-4.7c2.8-2.5,5.1-5.3,7.5-8.3c1.2-1.8,2.7-3.3,4.3-4.7c1.1-1.9,3.5-3,3.5-5.6c0.3-9.6,0-19.2,0.1-28.7
	c3.8,0,7.8,0,11.6,0c0.2-1.7,0.4-3.2,0.5-4.9c-0.2-11.6,1.1-23.1,0.3-34.8c-0.7-8.4,0-16.8-0.5-25.2c0.2-0.7,0.6-2,0.9-2.6
	c3.1,0.1,6.2,0.1,9.3,0.1c0-3.9,0-7.9,0-11.9c7.7-0.2,15.4-0.1,23.2-0.1c0,3.9,0,7.9,0,11.9c4.8,0.1,9.6,0.1,14.3,0
	c0.3,0.8,1,2.4,1.5,3.2c0.1,3.9,0.1,7.9,0,11.9c1.2,1.5,2.5,3.2,3.6,4.9c3.8,3,5.8,8.2,10.1,10.4c2.9,6.8-0.8,15.1,2.4,21.8
	c6.1,7.7,13,14.7,19.2,22.3c6.1,1.1,12.3,0.2,18.4,0.4c5.3-0.1,10.6,0.4,15.8-0.2c0-7.7,0-15.3,0-23c3.5,0,7.1,0,10.6,0
	c0-3.1-0.3-6.2-0.6-9.1c1.2-2.3,3.9-0.9,5.8-1.3c4.2,0.5,8.7-1.2,12.7,0.9c-0.2,10.8-0.1,21.6-0.1,32.4h23.2c0-23.3,0-46.5,0-69.8
	c3.5,0,7,0,10.5,0c0-4.4,0-8.8,0-13.2c7.7,0,15.4,0,23.2,0c0,4.4,0,8.8,0,13.2c3.1,0,6.3,0,9.4,0c0,39.4,0.1,78.9,0,118.3
	c5-5.7,10.2-11.2,15-17.1c2.5-3.4,5.3-6.6,8.8-8.7c3.4-0.7,8.3,1.8,10.8-1.7c0.4-7-0.1-14,0.2-21c4.2-0.1,8.3-0.1,12.6-0.1
	c0-34.9,0-69.8,0-104.6c2.7-0.5,6.3,1.3,8.3-1.3c0.3-6.4,0-12.8,0.1-19.2c0-1.7-0.3-3.9,1.5-4.5c1.6-0.4,3.2-0.2,4.9-0.2
	c0.2-8.7,0.1-17.3,0.2-26c0.6-0.4,2-1.2,2.6-1.7c5.4-0.1,10.8-0.1,16.2-0.1c1.3-0.2,3,0.7,3.1,2.5c0.2,7.9,0,16,0,24
	c2.1,0,4.2,0,6.3,0c0,9.3,0,18.4,0,27.6c3.1,0,6.2,0,9.3,0.1c0.2,7.1,0.1,14.4,0.1,21.5c2.7,0,5.5,0,8.2,0c1.8,5.8,1.1,12,1.2,18
	c0,23.5,0,46.9,0,70.4c12.4,14.4,24.8,28.4,37.3,42.7h13.2c0-20,0-40,0-60c0.1-5.5-0.6-11.2,1.2-16.4c1.5-2.3,3.1-4.2,5.1-5.8
	c0-80.2,0-160.4,0-240.7C1460.8,38.9,1477.7,19.5,1494.7,0L1494.7,0z"/>
</svg>
