<?xml version="1.0" encoding="utf-8"?>
<!-- Generator: Adobe Illustrator 22.1.0, SVG Export Plug-In . SVG Version: 6.00 Build 0)  -->
<svg version="1.1" id="Calque_1" xmlns="http://www.w3.org/2000/svg" xmlns:xlink="http://www.w3.org/1999/xlink" x="0px" y="0px"
	 viewBox="0 0 2693 682.8" style="enable-background:new 0 0 2693 682.8;" xml:space="preserve">
<style type="text/css">
	.st0{fill:#FFFFFF;}
</style>
<path class="st0" d="M2624.5,276.3c-0.8,13.4-1.7,26.9-1.7,40.3c-0.4-9.4-0.6-18.8-1-28.2c-0.9,16.9-1.1,33.9-2,50.8
	c-0.2,6.1-2.5,11.9-4.1,17.7c-0.4-5.7-0.7-11.3-1-17c-0.4,4.4-0.9,8.7-1.2,13.1c-0.7-5-1.4-10-1.9-15c-1.1,5-2,9.9-3.1,14.9
	c-0.2-7.6-0.4-15.3-0.5-22.9c-1.2,4-2.3,7.9-3.5,11.9c-0.3-4.4-0.6-8.7-0.9-13c-0.4,4.3-0.9,8.7-1.1,13.1c-0.5-9-0.8-18-1.9-27
	c-0.4,5.6-0.7,11.3-1,17c-0.4-4-0.7-8-1-12c-0.6,4.4-1.3,8.9-1.7,13.3c-1.6-8.4-2-17-2.4-25.5c-3.2,9.4-4.9,19.3-5,29.2
	c-0.3-2.7-0.8-8.2-1-11c-0.4,6.4-0.8,12.7-1.1,19.1c-0.7-19.1,0.8-38.4-2-57.4c-0.3,14.7-0.2,29.5-0.8,44.2
	c-0.3-8.7-0.6-17.4-0.7-26c-0.9,2.6-1.6,5.2-2.4,7.8c-0.4-7.4-0.7-14.7-1-22.1c-1.3,12.1-1.6,24.2-2.2,36.3
	c-1.5-11.3-1.4-22.8-1.8-34.2c-0.3,8.8-0.8,17.5-1.2,26.3c-2.9-10.5-3.5-21.5-4.1-32.3c-0.3,7.7-0.6,15.4-0.9,23.1
	c-0.4-12.1-0.6-24.2-1-36.3c-1.1,8-1.7,16.1-2,24.2c-0.6-4.8-1.3-9.6-1.8-14.4c-0.9,8.5-1,17.1-1.6,25.6
	c-1.6-14.1-1.2-28.3-1.8-42.5c-1,8.9-0.9,18-3.6,26.6c-0.4-3.1-1.2-9.3-1.6-12.4c-0.2,13.4-0.2,26.9-0.7,40.3
	c-0.6-10-0.9-20.1-2-30.1c-0.3,3-0.8,8.9-1.1,11.9c-0.2-3-1.5-6-1.3-9c-0.2,9.1-0.4,18.1-0.6,27.2c-2-6.2-3.5-12.6-4.7-19
	c0,16.4,0.7,33-1.5,49.3c-0.9-20.2-0.9-40.4-2.1-60.5c-0.6,17.5-0.7,35-2.1,52.5c-1.5-14.1-1.5-28.3-2-42.4
	c-0.7,14.8-1.3,29.6-2.1,44.4c-0.4-12.8-0.4-25.6-2-38.3c-0.4,10.1-0.6,20.2-1.2,30.4c-2-18.5-0.8-37.1-1.8-55.6
	c-0.5,10.2-0.7,20.3-1.5,30.5c-1.3-11.6-1-23.4-1-35l-0.9-0.1c0,13.6,0,27.2-0.4,40.9c-4-33.1,0.1-66.7-2.3-99.9
	c-1.2,37,0.5,74.1-0.9,111.1c-3.2-47.1-0.2-94.3-2.1-141.4c-0.8,24.4-0.3,48.8-0.4,73.2c-0.1,17.7,0.9,35.5-1.4,53
	c-1.8-53.5,0.5-107.1-1.2-160.6c-1.8,52.8,1.5,105.8-2.1,158.5c-1.2-28.9,0.5-57.9-1-86.8c-1,27.2,0.7,54.6-2.1,81.8
	c-1-33.6,0.6-67.3-0.8-101c-1.5,31,0.9,62.1-1.4,93.1c-2.9-29,0.9-58.2-2.3-87.1c-2,27.5,0.9,55.3-2.4,82.7
	c-1.1-34.3,0.6-68.6-1-102.9c-0.2,38.5-1.5,77.1-1.3,115.6l-1.1,0c-0.3-35.5,0.8-71.1-0.6-106.6c-1.1,28.6,0.5,57.3-0.9,85.9
	c-2-21.3-1.4-42.8-1.4-64.2l-1.1,0c-0.3,32.2,0.8,64.3-0.6,96.5c-2.9-24.8-0.4-49.9-1.9-74.8c-0.7,19.3-1.6,38.7-1.5,58.1
	c-0.1,18.6,0.7,37.4-1.7,55.9c-1.2-38,0.6-76-1-114c-0.8,34.7,0.2,69.4-3,104c-0.5-17.1-0.3-34.3-0.9-51.4
	c-0.5,15.8-0.4,31.6-1,47.4c-0.4-7.7-0.8-15.5-1.1-23.2c-0.3,11.1-0.5,22.2-1.1,33.3c-0.4-15.1-0.3-30.3-0.9-45.4
	c-0.5,14.1-0.5,28.3-0.8,42.4c-0.5-2.7-1-5.3-1.4-8c-0.4,4-0.7,8-1.1,11.9c-0.3-8-0.5-16.1-0.8-24.1c-0.4,4.7-0.9,9.3-1.2,14
	c-0.3-7.3-0.4-14.7-0.6-22c-0.7,6-1.3,12-2.1,18.1c-2.3-11-3-22.1-3.3-33.3c-0.3,9.1-0.5,18.1-0.7,27.2c-0.5-2.7-1-5.3-1.4-8
	c-0.3,7.7-0.5,15.4-0.7,23.1c-1.1-9.3-2.2-18.7-2.9-28.1c-0.7,5.7-1.3,11.3-2,17c-1.7-10-1.7-20.1-2.2-30.2
	c-0.5,12.1-0.9,24.3-3.2,36.3c-0.2-14.5-0.2-28.9-0.8-43.4c-0.5,10.1-0.6,20.2-1,30.2c-0.4-6.4-0.8-12.7-1.1-19.1
	c-0.4,8.4-0.6,16.8-0.9,25.2c-1.2-18.1-1.7-36.2-2.6-54.3c-0.4,1.3-0.7,2.6-1,3.9c-0.6-0.4-1.3-0.9-1.9-1.3c-0.2,10.5,0,21-1.6,31.3
	c-0.5-23.2-1.6-46.4-3-69.5c-0.3,9.7-0.5,19.5-0.9,29.3c-1.8-13.4-1.7-26.9-3.2-40.2c-0.5,19.2,0.2,38.4-1.1,57.5
	c-1.1-9.7-1.4-19.6-2-29.4c-0.4,18.5,0,37-0.8,55.5c-1.3-29.3,0.5-58.6-1.1-87.9c-0.8,20.2,0.1,40.4-1,60.6
	c-2.7-24.1-0.5-48.5-1.9-72.7c-1.2,25.9,0.4,51.9-1.1,77.8c-0.7-19.9,0-39.7-0.9-59.6c-0.7,23.2-0.9,46.5-2.2,69.7
	c-0.8-22.9,0.2-45.8-0.9-68.7c-0.5,8.1-0.7,16.1-1.1,24.2c-1.7-24.9-1-49.8-2.1-74.7c-0.8,19.8,0.7,39.8-3.1,59.4
	c-0.4-7.7-0.7-15.3-1-23c-0.5,18.2-0.1,36.4-0.8,54.5c-2.7-23.3-1.1-46.8-1.5-70.2l-1,0c0,13.6,0,27.3-0.6,40.9
	c-0.6-18.5-0.3-37.1-2.1-55.5c-0.4,14.8-0.3,29.6-0.8,44.4c-0.4-6.7-0.8-13.4-1.1-20.1c-0.5,17.1-0.2,34.3-1,51.4
	c-0.6-18.5-0.4-37.1-1.9-55.5c-0.4,7.4-0.7,14.8-1.1,22.1c-1.2-17.5-1.4-35-2-52.5c-1.1,37.7,0.6,75.4-2,113.1
	c-1-22.2,0.2-44.4-1.1-66.6c-1.1,25.2,0.4,50.5-1,75.7c-0.5-15.8,0.2-31.7-1.9-47.5c-0.6,10.1-0.8,20.2-1.3,30.3
	c-0.4-15.1-0.3-30.3-1-45.4c-0.5,13.4-0.4,26.9-0.9,40.4c-0.4-6.4-0.8-12.8-1.1-19.1c-0.4,4.7-0.8,9.3-1,14
	c-0.8-4.6-1.5-9.2-2.2-13.8c-0.3,9-0.5,18-0.9,27c-0.6-16.6-0.3-33.3-0.3-50h-1.1c0,28.6,0.1,57.2,0.1,85.9h-1.1
	c-0.3-32.2,0.7-64.3-0.6-96.5c-1.2,27.9,0.4,55.9-1,83.8c-1.2-31.3,0.6-62.6-1.1-93.9c-0.8,23.4-0.2,46.8-0.3,70.2l-1.1,0
	c0-20.4,0.4-40.7-0.5-61.1c-0.4,12.4-0.6,24.9-1.1,37.3c-1.2-31,0.5-61.9-1-92.9c-0.6,17.5-0.3,35-1,52.5
	c-1.4-41.1,0.5-82.2-1-123.2c-1.1,51-0.2,102-0.4,153h-1.1c-0.3-55.7,0.8-111.5-0.5-167.2c-1.4,47.8,0.7,95.6-1.1,143.4
	c-1.3-51.8,0.7-103.7-1-155.6c-1.3,55.2,0.6,110.5-0.9,165.7c-1.5-51.2,0.7-102.4-1.1-153.5c-1.3,53.9,0.7,107.8-1,161.6
	c-0.5-16.2-0.3-32.3-0.9-48.5c-1.3-37.7,0.5-75.4-1-113.1c-1.4,44.4,0.7,88.9-1.1,133.3c-0.9-41.9-0.1-83.8-0.3-125.8h-1.1
	c-0.3,35.5,0.8,71.1-0.6,106.6c-1.3-36.4,0.6-72.8-1-109.1c-1.3,43.1,0.7,86.2-1.1,129.3c-1.2-40.4,0.6-80.8-0.9-121.2
	c-1.3,32.6,0.6,65.3-1.1,98c-0.9-40.2-0.1-80.5-0.3-120.7h-1.1c-0.4,42.3,0.9,84.5-0.6,126.8c-1.3-43.8,0.7-87.6-1-131.3
	c-1.2,52.2,0.6,104.4-0.9,156.6c-1.4-59.6,0.6-119.2-1-178.8c-1.5,52.8,0.7,105.7-1.1,158.6c-1.2-35,0.5-70-0.9-105
	c-1.4,44.4,0.7,88.9-1.1,133.3c-1.2-37,0.6-74.1-1-111.1c-1.3,70,0.6,140.1-1,210.1c-1.4-49.5,0.6-99-1-148.5
	c-1.3,52.8,0.5,105.7-0.9,158.6c-0.4-7.4-0.8-14.8-1.2-22.2c-0.8,5.3-1.6,10.6-2.2,15.9c-0.2-5-0.5-9.9-0.6-14.9
	c-0.8,3.9-1.4,7.9-2.1,11.8c-0.8-2.2-1.6-4.4-2.3-6.5c-0.4,4.3-0.8,8.5-1.1,12.8c-1.2-11-1.2-22.2-1.7-33.3
	c-0.5,10.1-0.8,20.2-1.8,30.3c-0.7-15.8-0.6-31.6-0.9-47.4c-0.9,6.6-1.6,13.3-2.3,20c-0.3-2.7-0.8-8.2-1.1-10.9
	c-0.3,10.7-0.5,21.5-1,32.2c-2-19.8-2.2-39.7-3-59.5c-0.5,18.2-0.1,36.4-0.9,54.5c-0.5-12.4-0.6-24.9-1-37.3
	c-0.8,13.8-1.5,27.6-2.2,41.4c-0.7-20.9,0.3-41.8-1.1-62.6c-3.2,23.1-0.1,46.5-1.9,69.7c-0.6-17.7-0.3-35.4-1.4-53
	c-1.3-20.3-0.7-40.8-2.7-61.1c-0.9,23.9,0.4,47.8-1,71.6c-1-26.6,0.3-53.2-0.8-79.7c-0.4,7-0.8,14.1-1.2,21.1
	c-0.4-6-0.7-12.1-1.1-18.1c-0.5,22.2-1.2,44.4-2,66.6c-1.2-31.3,0.6-62.6-1-93.9c-1.3,41.7,0.7,83.5-1,125.3
	c-1.2-35.3,0.6-70.7-1-106.1c-0.7,32.7,0,65.3-2,98c-1.2-39.4,0.6-78.8-1-118.2c-1.2,31.3,0.5,62.6-1,93.9
	c-1.2-36.7,0.6-73.4-1-110.1c-1.1,26.2,0.3,52.5-1,78.8c-2.6-33.6-0.5-67.3-2-101c-1.4,36,0.6,72.1-1.1,108.1
	c-0.9-41.6-0.1-83.2-0.3-124.8h-1.1c0.1,60.6,0,121.2,0.1,181.8h-1.1c0.1-67.3,0-134.7,0.1-202h-1.1c0.4,48-0.2,96-1.6,144
	c-1.3-48.1,0.7-96.3-1-144.5c-1.3,48.1,0.7,96.3-1,144.5c-0.9-37.9-0.1-75.8-0.4-113.6h-1.1c-0.3,40.6,0.8,81.2-0.6,121.7
	c-2.4-48.8-0.5-97.7-2.1-146.5c-1.3,40.1,0.7,80.2-1,120.2c-1.2-41.7,0.6-83.5-0.9-125.3c-1.4,66.3,0.6,132.7-1,199
	c-1.4-57.9,0.5-115.8-0.9-173.7c-1.9,34.3-1,68.7-2.2,103c-1.2-35,0.6-70.1-1-105.1c-0.9,34.5-0.1,69-0.4,103.5h-1.1
	c-0.3-30.5,0.7-60.9-0.5-91.4c-1.7,26.2-1.1,52.5-2.1,78.8c-0.9-22.9,0.2-45.8-0.9-68.7c-1.1,47.6-0.2,95.3-0.4,142.9h-1.1
	c-0.2-30.5,0.6-61-0.4-91.4c-2.7,37-0.6,74.1-2.2,111.1c-0.7-19.5-0.1-39-0.8-58.5c-0.5,12.2-0.7,24.3-1.5,36.5
	c-3-35.6,0.5-71.5-1.7-107.2c-1.6,38,1.5,76.2-2.1,114.1c-0.3-14.5-0.3-28.9-0.8-43.4c-1.1,16.5-1.6,33-2,49.5
	c-0.1-2.9-1.1-6-0.9-8.9c-0.4,1.4-1.1,4.3-1.5,5.7c-0.2-4-0.5-12-0.7-16c-0.3,3.3-1,6.6-1.2,10c-0.8-4.6-1.6-9.2-2.2-13.8
	c-0.1,12.4-0.2,24.8-0.8,37.1c-0.5-13.5-0.4-26.9-0.9-40.4c-0.4,7.7-0.7,15.4-1.1,23.2c-0.4-4.7-0.8-9.4-1-14.1
	c-0.1,3-1.1,5.9-0.8,8.9c-0.3-1.5-0.6-3-0.8-4.5c-0.6,1.1-1.1,2.1-1.6,3.2c-0.6-4.2-1.1-8.4-1.8-12.6c-0.4,8-0.6,16-0.9,24.1
	c-0.4-3.3-1.2-6.7-1.3-10c-0.2,9.7-0.4,19.4-0.7,29.2c-0.3-8.7-0.7-17.4-0.9-26.2c-0.7,4-1.3,7.9-2,11.9c-0.4-1.7-1.1-5-1.4-6.6
	c-0.2,3-0.7,8.9-0.9,11.9c-0.4-11.4-0.6-22.8-1.9-34.2c-0.4,10.4-0.7,20.8-1.1,31.2c-0.4-14.1-0.4-28.2-1.1-42.4
	c-2.2,13.7-1.1,27.7-2.4,41.6c-1.1-7.1-1.3-14.2-1.8-21.3c-0.3,9.1-0.4,18.1-0.7,27.2c-0.6-8.1-1.1-16.1-1.9-24.1
	c-0.5,4.7-1,9.3-1.3,14c-0.5-6.1-1-12.3-1.4-18.4c-1.5,5.3-2.1,10.8-2.9,16.3c-0.6-14.4-1.1-28.9-1.8-43.3
	c-0.3,10.8-0.2,21.6,0,32.4c-1.1-0.6-2.2-1.3-3.3-1.8c0-43.3,0-86.7,0.1-130h-1.1c-0.3,35.5,0.8,71.1-0.6,106.6
	c-0.7-45.8-0.1-91.6-2-137.4c-1.3,41.4,0.7,82.8-1,124.3c-0.9-36.5-0.1-73.1-0.3-109.6h-1.1c-0.3,37.2,0.7,74.4-0.5,111.6
	c-2.2-39.4-0.8-78.8-2.1-118.2c-0.9,41.7,0.3,83.5-2,125.3c-1.3-46.1,0.7-92.3-1.1-138.4c-1.7,39.1,1.7,78.3-1.8,117.3
	c-1.8-37,0.5-74.2-1.2-111.2c-1.4,36,0.6,72.1-1.1,108.1c-0.5-11.8-0.5-23.5-1-35.3c-2.1,28.9-0.9,57.9-1.9,86.8
	c-2.6-26.2-0.8-52.5-2.1-78.7c-0.9,24.6-2.9,49.1-3.2,73.7c-1.2-41.7,0.6-83.5-0.9-125.2c-0.5,13.9-0.4,27.9-0.9,41.8
	c-1.5,35.2,0.5,70.5-1.2,105.6c-0.9-39.4-1.4-78.7-1.7-118.1c-2.7,22.6-1.1,45.4-1.9,68.1c-0.9,18.3-0.5,36.7-1.4,55
	c-1.1-26.2,0.4-52.5-1.1-78.8c-0.9,23.5,0.3,47.1-0.9,70.7c-0.4-12.8-0.5-25.6-1.2-38.4c-1.5,14.1-1.3,28.3-2,42.5
	c-1.2-7.3-1.4-14.8-1.9-22.2c-0.5,8.7-0.8,17.4-2,26c-0.4-11.1-0.6-22.1-0.9-33.1c-0.5,10.1-0.7,20.2-1.9,30.3
	c-0.7-10.1-0.8-20.2-1.1-30.3c-0.8,6.3-1.5,12.7-2.1,19c-0.4-4.1-1.2-12.3-1.6-16.4c-0.9,10.9-1.2,21.8-1.6,32.7
	c-0.3-11.4-0.5-22.9-0.9-34.3c-0.6,11.4-1.2,22.8-2,34.2c-0.4-12.1-0.6-24.2-1-36.2c-0.6,13.1-1,26.2-2,39.3
	c-0.3-8.7-0.5-17.4-0.7-26.1c-0.7,5-1.3,9.9-2,14.9l-0.7-5.6c-0.7,1.1-1.5,2.3-2.1,3.4c-0.2-7-0.3-14-0.5-20.9
	c-0.8,3.9-1.6,7.9-2.2,11.9c-0.3-1.4-0.8-4.1-1.1-5.5c-0.6,8.3-1,16.6-2.2,24.9c-0.7-1.6-1.3-3.1-1.9-4.7c-0.3,1.4-0.8,4.2-1.1,5.5
	c-0.1-10.7-0.2-21.3-0.3-32c-0.9,8.8-1.3,17.8-4.5,26.1c-0.3-6.4-0.6-12.7-0.8-19.1c-0.6,7.4-1.1,14.7-1.9,22.1
	c-0.8-7-1.4-14-2.1-21c-0.3,4-0.8,12-1.1,16c-0.4-4.3-0.9-8.7-1.1-13c-0.3,6.4-0.6,12.7-0.9,19.1c-0.9-16.5-1.4-33-2.1-49.4
	c-0.4,16.5-0.2,33-0.9,49.5c-0.7-22.2-1-44.4-2-66.6c-1,24.2,0.3,48.5-1,72.7c-0.8-21.5,0.1-43.1-0.9-64.6
	c-0.6,9.4-0.8,18.8-1.9,28.2c-0.6-14.4-0.6-28.9-1.3-43.4c-0.8,19.9,0.4,39.9-1.4,59.8c-2.5-25.4-0.3-51-1-76.5h-1.1
	c-0.1,23.7,0.5,47.4-0.4,71.1c-2.3-20.4-1.1-41-2.2-61.5c-0.4,12.1-0.4,24.3-1.7,36.4c-0.9-15.8-0.7-31.7-1.4-47.5
	c-1,25.2,0.5,50.5-1,75.7c-1.2-37,0.7-74.1-1-111.1c-0.5,31.3-0.3,62.6-2,93.9c-1.2-33,0.6-66-1-99c-1.1,33.6,0.5,67.3-0.8,101
	c-3.9-33.8,0.2-68-2.2-102c-1.3,40.1,0.6,80.1-1,120.2c-2.2-45.8-0.7-91.6-2-137.4c-1.4,39.4,0.5,78.8-1,118.2
	c-0.8-49.5-0.3-99-2.1-148.5c-1.3,38,0.6,76.1-1,114.1c-1.4-37.7,0.6-75.4-1.1-113.1c-0.9,44.9-0.1,89.9-0.3,134.9l-1,0
	c-0.1-10.1-0.1-20.2-0.3-30.3c-1.9-53,0.4-106.1-1.3-159.1c-1.4,63,0.5,125.9-1,188.9c-0.8-13.6-1.6-27.2-1.5-40.9
	c0-45.5,0-90.9,0.1-136.4h-1.1c-0.4,62.5,0.9,124.9-0.6,187.4c-1.3-55.5,0.7-111.1-1-166.7c-1.3,56.9,0.7,113.9-1,170.8
	c-0.7-6.2-1.1-12.5-1.3-18.7c-0.8-54,0.8-108.1-0.8-162.1c-1.3,56.9,0.7,113.8-1,170.7c-0.5-14.6-0.3-29.3-0.5-43.9
	c-2.2-50.3,0.4-100.7-1.5-151c-1.3,65.6,0.7,131.3-1,197c-1.3-53.5,0.7-107.1-1-160.6c-1.3,63.3,0.7,126.6-1,189.9
	c-0.5-14.3-0.3-28.6-0.5-42.9c-2.2-55.4,0.4-110.8-1.5-166.2c-1.3,53.5,0.6,107.1-0.9,160.6c-1.1-24,0.2-48.1-0.9-72.1
	c-1.5-30.1,0.4-60.4-1.2-90.5c-1.3,51.8,0.7,103.7-1,155.6c-1.3-56.9,0.7-113.8-1-170.7c-1.3,55.2,0.6,110.5-0.9,165.7
	c-1.4-36.2,0.6-72.5-1.2-108.8c-0.7-23,0.3-46-0.9-69c-1.4,56.2,0.6,112.5-1.1,168.7c-1.1-27.7,0.3-55.5-0.8-83.2
	c-1.5-31.5,0.4-63-1.2-94.5c-1.3,56.6,0.7,113.2-1,169.7c-0.9-54.7-0.1-109.4-0.4-164.1h-1.1c-0.4,75.9,0.9,151.9-0.6,227.8
	c-1-28.1,0.1-56.2-0.5-84.4c-2.2-50.3,0.4-100.7-1.5-151c-1.2,69,0.7,138.1-0.9,207.1c-3.1-61.9-0.1-123.9-2.1-185.9
	c-0.9,65.2-0.1,130.3-0.3,195.5h-1.1c-0.4-49,0.9-98-0.6-147c-0.7,47.8,0,95.6-2,143.4c-0.6-18.2-0.1-36.4-0.9-54.5
	c-1.1,31.1-1.9,62.3-1.5,93.4l-1.1,0c0.1-15.3,0.1-30.6-0.6-45.9c-0.6,18.2-0.1,36.4-0.9,54.5c-1.2-16.1-1.5-32.3-2-48.4
	c-0.8,23.2-1.1,46.4-2.1,69.6c-0.8-25.1-0.1-50.2-0.3-75.2l-1.1,0c0.1,15.3,0.1,30.6-0.3,45.9c-0.7-10.4-1.3-20.7-2.4-31
	c-0.5,15.8,0.1,31.6-2,47.3c-0.4-14.5-0.4-29-0.9-43.5c-0.4,12.8-0.5,25.6-1.8,38.4c-0.6-10.8-0.8-21.5-1.2-32.3
	c-0.4,11.5-0.6,22.9-1.7,34.4c-0.7-10.4-1-20.9-1.4-31.3c-0.4,9.1-0.7,18.1-1.3,27.2c-1.2-9.3-1.3-18.8-1.8-28.2
	c-0.3,8.7-0.7,17.4-1,26.2c-0.8-9.1-1.5-18.1-2-27.2c-0.1,3-1.1,5.9-0.8,8.9c-0.3-1.4-0.9-4.3-1.3-5.8c-0.7,7.3-1.4,14.6-2.1,21.9
	c-0.2-5.6-0.3-11.2-0.4-16.8c-0.7,1.6-1.4,3.2-2.1,4.7c-0.8-8-1.1-16.1-1.5-24.1c-0.4,5.7-0.7,11.4-1,17.1c-0.2-3-1.2-6.1-1.1-9
	c-0.2,3-1.3,5.9-1.2,8.9c-1.8-7.9-2.3-16-3-24c-0.2,12.1-0.3,24.2-0.8,36.2c-0.4-9.4-0.6-18.8-1-28.2c-0.5,4.7-1,9.4-1.4,14.1
	c-1.8-12-2.4-24.1-2.7-36.3c-0.4,7-0.8,14.1-1.3,21.1c-0.4-21.2,0.1-42.5-1.9-63.6c-1,27.6,0.5,55.2-1,82.8
	c-0.5-43.8-0.8-87.5-2-131.3c-1.1,26.9,0.4,53.8-0.8,80.7c-1.2-22.9-1.3-45.8-2.2-68.6c-1.8,39.4,1.8,78.9-1.8,118.2
	c-1.7-48.8,0.6-97.7-1.1-146.5c-1.9,41.7,1.7,83.7-1.9,125.3c-1.7-30.3,0.5-60.7-1.2-91c-0.7,39.1-0.2,78.1-2.1,117.2
	c-1.2-41.7,0.7-83.5-0.9-125.3c-1.2,33,0.5,66-1,99c-3.3-25.5-0.1-51.2-2.1-76.8c-0.6,22.9-0.2,45.8-2.1,68.6
	c-0.3-11.4-0.5-22.9-1-34.3c-0.6,19.5,0,39-1,58.6c-1.4-29.1-1.6-58.2-1.4-87.4l-1,0c0.2,23.4-1,46.8-1.5,70.2
	c-0.5-4.3-1-8.7-1.4-13c-0.2,13.4-0.2,26.9-0.8,40.3c-0.6-33-0.7-66-1.9-98.9c-1.8,29.2-3.1,58.5-5.3,87.8c-0.2-8.3-0.3-16.7-0.3-25
	c-0.4,1.4-1.3,4.3-1.7,5.7c-0.3-2.8-0.8-8.3-1.1-11c-3.1,13.9-2,28.3-3.5,42.4c-0.5-7-0.9-14-1.3-21.1c-0.4,8.5-0.7,17.1-1.4,25.6
	c-0.9-9.2-1.2-18.4-1.6-27.7c-0.3,10.4-0.6,20.8-0.9,31.2c-0.6-9.4-1.3-18.7-2.3-28c-0.3,9.3-0.6,18.7-0.8,28.1
	c-0.6-7.9-0.9-15.8-1.6-23.6c-0.8,7.5-1,15-1.5,22.6c-0.6-5-1.2-10-1.8-15c-0.5,3-1,6-1.5,9c-0.3-6.4-0.6-12.8-0.9-19.1
	c-0.2,6-0.4,12-0.5,18c-0.8-1.9-1.7-3.7-2.5-5.6c-1.1,4.5-2,9.1-3.1,13.7c-0.3-7.7-0.5-15.4-0.8-23.1c-0.6,4-1.2,8.1-1.7,12.1
	c-0.7-6-1.2-12.1-1.7-18.1c-0.3,11.1-0.5,22.2-1.3,33.3c-1-8.1-1.8-16.1-2.7-24.2c-0.3,8.7-0.6,17.4-1,26.1
	c-1.1-26.6-1.1-53.2-2.1-79.8c-0.5,16.9-0.1,33.7-1.1,50.6c-1.4-12.5-1.3-25-2.7-37.5c-0.6,9.7-0.8,19.5-1.2,29.3
	c-0.3-8.7-0.7-17.5-1.1-26.2c-2.2,15.9-1.3,32-1.4,48l-1,0c0-13.6,0-27.3-0.5-40.9c-0.8,15.8-1.4,31.6-2.1,47.5
	c-1.2-16.5-1.4-33-2.1-49.5c-0.4,16.1-0.3,32.3-1,48.5c-0.5-15.8,0.2-31.7-1.8-47.4c-0.7,13.1-0.7,26.2-1,39.3
	c-1.7-18.8-1.4-37.7-2.2-56.5c-0.5,16.1-0.3,32.3-0.8,48.4c-1.1-19.2-1.4-38.3-2.2-57.5c-0.6,19.5,0,39.1-0.9,58.6
	c-2.9-24.1-0.7-48.5-2-72.7c-0.5,8.2-1,16.4-1.7,24.6c-1.1-11.5-1-23.1-1.2-34.7c-2.7,27.3-1.3,54.8-1.6,82.2l-1.1,0
	c-0.3-28.8,0.7-57.6-0.6-86.4c-3.2,25.1-0.2,50.5-2,75.8c-1.1-26.3,0.8-52.6-2.1-78.8c-0.9,24.9,0.4,49.8-0.9,74.8
	c-1.1-30,0.5-59.9-0.9-89.9c-1.3,31,0.5,62-1.1,92.9c-0.5-16.4-0.4-32.8-1-49.2c-1.1-27,0.4-54.1-1-81.1
	c-1.3,48.1,0.6,96.3-0.9,144.5c-2.6-15.9-1.3-32-1.5-48c-0.3-32.2,0.7-64.3-0.6-96.5c-1.3,51.8,0.7,103.7-1,155.6
	c-0.6-18.1-0.2-36.3-0.9-54.4c-1.2-29,0.4-58-1-87c-1.4,42.7,0.6,85.5-1.1,128.3c-1.3-58.2,0.6-116.5-1-174.8
	c-1.5,47.8,0.7,95.6-1.1,143.4c-0.8-5.9-1.2-11.8-1.3-17.6c-0.6-47.3,0.9-94.7-0.7-142c-1.3,41.7,0.7,83.5-1,125.3
	c-1.3-45.1,0.7-90.3-1-135.4c-1.1,42.8,0.8,85.6-2.1,128.3c-0.8-37.9-0.1-75.8-0.3-113.6h-1.1c-0.3,40.6,0.8,81.2-0.6,121.7
	c-1.3-53.2,0.7-106.4-1-159.6c-0.9,61.4-0.2,122.9-0.4,184.4h-1.1c-0.3-31,0.8-62-0.7-93c-0.6-21,0.2-42-0.8-63.1
	c-1.4,56.2,0.6,112.5-1,168.7c-1.4-57.9,0.6-115.8-1-173.7c-1.4,39.4,0.5,78.8-1,118.2c-3.1-50.5-0.2-101-2.1-151.5
	c-1.3,56.6,0.6,113.2-1,169.7c-1.4-56.2,0.6-112.5-1.1-168.7c-1.3,53.2,0.6,106.4-1,159.6c-1.5-52.8,0.7-105.8-1.1-158.6
	c-0.9,70.2-0.1,140.4-0.3,210.6h-1.1c-0.3-36.4,0.8-72.8-0.7-109.1c-1-32.1,0.7-64.3-0.9-96.4c-0.9,60.4-0.1,120.9-0.3,181.3h-1.1
	c-0.3-54,0.8-108.1-0.6-162.1c-1.3,43.1,0.6,86.2-1,129.3c-0.9-49.7-0.1-99.3-0.4-149h-1.1c-0.4,74.2,0.9,148.5-0.6,222.7
	c-1.3-48.3,0.8-96.7-1.2-145c-0.5-32-0.1-64-0.2-96h-1.1c0.1,53.9,0,107.8,0.1,161.6h-1.1c0.1-50.5,0-101,0.1-151.5h-1.1
	c-0.4,57.4,0.9,114.8-0.6,172.2c-1.3-62,0.7-123.9-1-185.9c-1.1,36.5,0.3,73.1-0.6,109.6c-0.7,16.1-0.8,32.3-0.7,48.5l-1,0
	c-0.3-54,0.8-108.1-0.5-162.1c-1.1,59.4-0.2,118.9-0.4,178.3h-1.1c-0.3-60.8,0.8-121.6-0.6-182.3c-1.4,70,0.7,140.1-1.1,210.1
	c-0.9-45.3-0.1-90.6-0.3-135.9l-1.1,0c0.1,16.9,0.1,33.9-0.6,50.8c-1.1,27.7,0.5,55.4-1.1,83c-0.7-20.2,0.1-40.4-0.9-60.6
	c-1,33.5-3.1,67-2.4,100.5h-0.9c-0.1-10.3-0.3-20.5-0.8-30.8c-1.6,13.1-1.5,26.2-2,39.4c-0.3-10.9-0.4-21.9-0.4-32.8l-0.9,0
	c-0.1,11.9-0.2,23.9-0.6,35.8c-0.4-7.7-0.8-15.5-1.2-23.2c-2.1,18.4-0.9,37.1-1.9,55.6c-0.4-14.5-0.4-29-1.1-43.4
	c-0.5,15.1-0.3,30.3-0.9,45.4c-0.6-17.5-0.3-35-1-52.5c-1.6,19.1-1.3,38.4-2.1,57.6c-0.7-19.3-0.4-38.7-0.3-58.1l-1.1,0
	c0.1,17,0.2,34-0.5,51c-0.7-14.1-1.4-28.2-2.2-42.4c-0.3,13.5-0.3,26.9-0.9,40.4c-0.4-14.5-0.4-29-1-43.4c-0.4,11.1-0.6,22.2-1,33.3
	c-1.1-15.1-1.5-30.3-2.2-45.4c-0.4,13.4-0.4,26.9-0.9,40.4c-0.5-8.4-0.7-16.8-1.1-25.2c-0.3,6.4-0.6,12.7-0.8,19.1
	c-0.5-8.1-1.1-16.1-1.9-24.2c-0.5,6.4-0.9,12.7-1.2,19.1c-0.3-4-1-12-1.3-16c-0.2,15.1-0.1,30.3-0.9,45.4
	c-0.4-15.2-0.2-30.4-1.2-45.6c-1.6,14.6-1.3,29.4-1.1,44l-1.1,0c0.1-17,0.3-34-0.6-51c-0.7,18.3-0.3,36.7-0.3,55l-1,0
	c-0.1-26.8-1.1-53.5-1.7-80.3c-0.4,11.8-0.5,23.5-1,35.3c-0.5-17.5-0.2-35-1.1-52.5c-0.7,19.9,0.1,39.7-1,59.6
	c-1.8-11.5-1.5-23.2-1.5-34.9c0-25.4,0.6-50.8-0.5-76.3c-1,37.5-0.2,75.1-0.4,112.6h-1.1c-0.3-47.3,0.8-94.6-0.6-141.9
	c-1.3,43.1,0.6,86.2-1,129.3c-0.9-44.6-0.1-89.2-0.4-133.8h-1.1c0.2,53.7,0.3,107.4-1.5,161.1c-1-62.8-0.2-125.6-0.4-188.4h-1.1
	c-0.3,54,0.8,108.1-0.5,162.1c-1.4-44.4,0.6-88.9-1.1-133.3c-1.1,26.2,0.4,52.5-1,78.8c-1.1-26.1,0.3-52.1-0.8-78.2
	c-1-20.1-0.1-40.1-1.2-60.2c-1.4,49.8,0.7,99.7-1.1,149.5c-1.2-37,0.6-74.1-0.9-111.1c-1.4,47.8,0.6,95.6-1.1,143.4
	c-1.3-53.2,0.7-106.4-1-159.6c-1.2,58.2,0.4,116.5-0.8,174.7c-3.1-40.3-0.5-80.8-2.2-121.1c-1.4,39.4,0.6,78.8-1.1,118.2
	c-1.2-48.1,0.9-96.3-2.1-144.4c-0.3,34.4-2.9,68.6-3,103c-0.5-16.2-0.3-32.3-1-48.5c-2.5,32.6-0.7,65.3-2,98
	c-1.4-19.2-1.5-38.4-2-57.5c-0.4,10.7-0.6,21.5-1,32.3c-0.5-5-0.9-10-1.3-15.1c0.1,31.6-0.4,63.3-4.4,94.7
	c-0.8-3.7-0.9-7.5-1.9-11.2c-4.9-2.7-6.7,4.8-9,7.8c-0.1-0.8-0.3-2.3-0.5-3.1c-1.7,2-3.4,3.9-5,6c-0.1-4.2-0.2-8.3-0.3-12.5
	c-1.1,3.3-2.1,6.7-3.1,10c-0.3-4.3-0.6-8.6-0.8-12.9c-0.3,2.7-0.8,8.2-1.1,10.9c-0.4-2.5-0.9-5-1.2-7.5c-1.1,1.4-2.3,2.8-3.4,4.2
	c0-0.7,0-2.1,0-2.8c-0.7,0.5-1.4,0.9-2.1,1.4c-0.9-5.4-1.7-10.9-2.5-16.3c-0.4,6.7-0.7,13.4-1.1,20.1c-0.3-6.7-0.5-13.4-0.8-20.1
	c-0.4,2.7-0.8,5.3-1.2,8c-0.3-3-1.3-6.1-1.3-9c0,6.1,0,12.2,0.1,18.4c-0.8-0.5-1.6-1-2.3-1.5c-0.1,1.5-0.4,4.6-0.5,6.1
	c-0.8-3.2-1.3-6.4-1.9-9.6c-0.7,3.5-1.3,7.1-1.9,10.7c-0.7-4.1-1.4-8.2-2-12.3c-2.5,3.1-4.6,6.5-6.6,9.9c-0.3-7.9-0.6-15.8-1.6-23.6
	c-0.6,8.4-1.1,16.7-2,25.1c-2-12.7-3.2-25.5-4.2-38.3c-0.3,9.1-0.6,18.1-1,27.2c-1.4-8.7-1.7-17.5-2.5-26.2
	c-0.4,2.8-1.3,8.4-1.8,11.1c-0.6-3.3-1.5-6.7-1.9-10c-0.5,8.3-0.8,16.6-1.4,25c-0.8-6.4-1.4-12.7-2.4-19c-0.9,7.7-1.5,15.4-2.1,23.2
	c-0.6-8-1.2-16-1.8-24.1c-0.9,6-1.8,12.1-2.6,18.1c-0.8-6.7-1.3-13.5-1.8-20.2c-1,7.3-1.2,14.7-1.7,22.1c-0.9-9.9-2.1-19.7-3.5-29.5
	c-0.6,3.4-1.3,6.8-1.7,10.3c-0.5-8-0.8-16-1.9-24c-0.5,14.4-0.4,28.9-0.9,43.3c-2.4-20.5-0.9-41.1-2.1-61.6
	c-0.7,15.9,0.3,31.9-2.4,47.6c-1.9-14.1-0.9-28.4-1.6-42.6c-0.6,12.2,0.1,24.8-4.2,36.4c-0.5-10.1-0.5-20.3-0.8-30.4
	c-0.9,6-1.6,12-2.4,18.1c-2.2-18.7-1.3-37.7-2.8-56.4c-0.4,7.7-0.7,15.4-1,23.2c-0.3-11.1-0.6-22.2-1.7-33.3
	c-0.9,12.8-1.6,25.6-2.5,38.3c-2-19.8-0.9-39.7-2.1-59.6c-0.9,22.5,0.6,45.2-2.1,67.6c-0.5-24.9-0.2-49.8-2-74.7
	c-0.6,24.6,0.1,49.2-1.9,73.7c-0.4-12.1-0.6-24.2-1-36.3c-0.4,6.7-0.7,13.4-1.1,20.1c-0.9-7-1.6-14-2.2-21.1
	c-0.2,12.4-0.2,24.9-1.4,37.3c-3.5-22.7-4-45.7-4.5-68.6c-1.3,23.9-0.7,48-3.6,71.8c-2.2-52.5,0.5-105.1-1.4-157.7
	c-1.3,58.6,0.6,117.2-0.9,175.8c-0.5-15.8-0.4-31.7-1-47.5c-0.7,10-1.1,20-1.4,30c-0.7-1.1-1.4-2.3-2-3.4
	c-0.2,6.6-0.3,13.2-0.4,19.9c-0.4-4.4-0.9-8.7-1.3-13c-0.3,8.1-0.6,16.1-1,24.2c-2.1-13.3-1.4-26.8-2.2-40.2
	c-0.7,1.1-1.5,2.3-2.2,3.4c-0.3-4.3-0.5-8.5-0.7-12.8c-0.4,14.5-0.7,28.9-1.8,43.4c-0.3-3.3-0.8-6.7-1-10c-1.2,1.5-2.5,3-3.7,4.6
	c0.1-22.2,0.2-44.5,0.1-66.7l-1.1,0c0,20.4,0.3,40.7-0.4,61.1c-0.5-7.4-0.8-14.8-1.2-22.2c-0.4,7.7-0.6,15.4-1,23.1
	c-0.4-5-0.8-10.1-1.1-15.1c-0.9,7.7-1.5,15.4-2.1,23.1c-0.3-11.4-0.4-22.9-0.8-34.3c-0.2,4.4-0.3,8.8-0.4,13.3
	c-0.6-0.4-1.3-0.8-1.8-1.3c-0.4,1.3-0.7,2.6-1.1,3.9c-0.3-11.1-0.7-22.2-2.8-33.1c-2.6,14-0.9,28.5-2.9,42.6
	c-0.6-8.4-0.8-16.9-1.1-25.3c-0.7,10.7-1.4,21.5-2,32.2c-0.5-10.4-0.8-20.9-2.1-31.3c-0.4,9.4-0.5,18.8-0.8,28.2
	c-2.2-20.8-1.2-41.7-2.1-62.5c-1.5,16.8-1.9,33.8-4.9,50.4c-0.2-3-0.7-8.9-0.9-11.9c-1,6-1.8,12.1-3.1,18c-0.5-2.6-1.1-5.3-1.5-7.9
	c-0.3,4-0.8,12-1,16c-2.3-15.9-1-32-1.2-48h-1.1c0.1,10.2,0,20.4,0.1,30.6c-0.5-1.4-1.4-4.2-1.9-5.6c-0.3,4.3-0.6,8.5-0.8,12.8
	c-0.3-11.3-0.4-22.6-1.3-33.9c-0.7,1.1-1.4,2.3-2,3.4c-0.3-13-0.9-26.1-1.7-39.1c-0.7,20.9,0.1,41.7-0.9,62.6
	c-1.1-26.3,0.3-52.5-0.9-78.8c-2.6,24.2-0.7,48.5-2.2,72.7c-0.9-23.2,0.1-46.5-0.8-69.7c-3.2,28.8-0.4,57.9-2.2,86.8
	c-1.1-35,0.4-70-0.7-105c-2.8,26.5-0.1,53.2-3.1,79.6c-0.4-3.3-1.1-6.6-1.3-9.9c-0.6,14.4-1.4,28.8-2.4,43.2c-0.6-1.5-1.2-3-1.8-4.6
	c-0.1,3.3-0.7,6.5-0.7,9.8c-0.3-3.9-0.5-7.9-0.7-11.8c-0.9,2.2-1.7,4.5-2.5,6.7c-0.1-4.4-0.1-8.9-0.1-13.3c-0.7,0.4-1.3,0.8-1.9,1.3
	c-0.9-7.9-2.5-15.7-4.7-23.3c-0.8,5.7-1.4,11.4-2.2,17.1c-0.3-3.3-1-6.6-1.2-9.9c-0.4,10.6-0.8,21.2-1.2,31.9c-0.3-0.7-1-2-1.3-2.7
	c-0.8,1.7-1.7,3.3-2.5,5c-0.2-2.7-0.6-8.2-0.9-10.9c-0.9,9-1.5,18.1-2.1,27.1c-0.2-7.3-0.3-14.6-0.4-21.9c-1,1.5-2,3-2.9,4.4
	c-0.1-1.9-0.2-5.8-0.3-7.7c-0.9,1.6-1.8,3.1-2.7,4.7c-0.6-2.8-1.5-5.7-2-8.5c-0.1,5-0.3,9.9-0.4,14.8c-0.6-2.7-1.2-5.4-1.7-8
	c-0.8,5.7-1.3,11.3-1.8,17c-0.2-15.4,0-30.9-1.8-46.2c-0.4,11-0.5,22.1-1.7,33.1c-0.5-3-1-6-1.4-9c-0.3,4.3-0.6,8.7-0.8,13
	c-0.4-10.1-0.7-20.1-1.8-30.1c-0.5,7.7-0.8,15.4-1.2,23.1c-0.2-3-1.1-6.1-1.1-9c-0.4,3.3-1.1,6.6-1.4,10
	c-1.3-11.7-1.1-23.5-2.3-35.2c-1.2,13.1-2.7,26.1-3.5,39.2c-1.3-12.4-1.5-24.9-1.9-37.3c-0.4,6-0.7,12.1-1.1,18.1
	c-0.4-7.4-0.7-14.7-1-22.1c-0.6,13.8,0.5,27.9-2.6,41.5c-0.7-10.5-1.1-21-1.5-31.5c-1,14.4-1.6,28.9-2,43.4
	c-0.4-9.7-0.6-19.5-1-29.2c-0.4,9.7-0.5,19.5-0.9,29.2c-0.5-8.4-1-16.9-1.9-25.3c-1.6,5.9-1.9,12.1-2.5,18.2
	c-0.1-10.7-0.3-21.4-0.6-32.1c-0.4,7-0.8,14-1.2,21.1c-0.4-5-0.8-10-1.1-15c-1,6.4-1.9,12.9-2.8,19.3c-0.9-13.2-0.8-26.4-1.1-39.7
	c-0.4,9.1-0.7,18.1-1.2,27.2c-1.1-6.6-1.6-13.4-2.2-20.1c-0.1,13.4-0.1,26.9-0.9,40.3c-2-13-1.2-26.2-1.7-39.3
	c-0.8,4.3-1.5,8.6-2.3,12.9c-0.3-3.3-0.9-6.6-1.2-9.9c-0.2,10.7-0.4,21.4-0.7,32.2c-1.6-13.7-2.7-27.5-3.1-41.3
	c-0.4,5.7-0.7,11.4-1,17.1c-0.4-5.7-0.9-11.4-1.3-17.1c-0.3,15.1-0.1,30.3-0.8,45.4c-2-13.4-1.5-26.9-2.3-40.4
	c-0.5,1.5-1.5,4.4-2.1,5.9c-0.1-8.7-0.4-17.4-0.6-26.1c-0.8,18.5-1.4,37-2.1,55.5c-0.8-20.5-0.1-41-1-61.5
	c-0.5,10.1-0.7,20.3-1.9,30.3c-0.7-13.1-0.7-26.3-1.2-39.5c-2.3,20.5-0.9,41.1-2,61.6c-1.2-22.7,0.7-45.5-1.6-68.2
	c-1.7,18-0.4,36-1.5,54c-0.9-23.6,0.5-47.2-2-70.7c-1.1,27.9,0.5,55.9-1,83.9c-0.7-36,0-72.1-2.1-108.1
	c-0.8,36.5-0.1,73.1-0.3,109.6l-1.1,0c0.3-31.5-0.9-63-1.7-94.4c-1.1,33.7,0.5,67.3-0.9,101c-2.4-50.6-1.2-101.3-1.4-152h-1.1
	c-0.4,52.4,1,104.8-0.7,157.1c-3.3-42.3,0.2-84.9-1.9-127.3c-1.3,36,0.5,72.1-1,108.1c-0.9-23.4-1.7-46.8-1.5-70.2l-1,0
	c-0.3,28.1,1.2,56.3-1.7,84.3c-0.3-14.5-0.3-28.9-0.8-43.4c-0.4,12.4-0.6,24.9-1.2,37.3c-2-14.7-1.1-29.6-1.8-44.4
	c-0.6,18.8-0.7,37.7-2.2,56.5c-0.4-11.8-0.4-23.5-0.8-35.3c-0.6,9.7-1.1,19.4-2.1,29.1c-0.5-8.7-0.9-17.5-1.6-26.2
	c-0.9,13.8-0.9,27.6-1.4,41.4c-0.9-5.6-1.6-11.2-2.3-16.9c-0.1,12.7-0.4,25.4-1.7,38c-0.4-4.3-0.8-8.6-1.2-12.9
	c-0.3,5-0.6,10-0.9,15c-0.8-5.3-1.5-10.6-2.2-15.9c-0.3,4.3-0.6,8.6-0.8,12.9c-0.3-5.3-0.5-10.6-0.7-16c-0.7,2.2-1.5,4.4-2.2,6.6
	c-0.5-1.5-1-3-1.4-4.5c-0.2,3-0.4,5.9-0.6,8.9c-0.3-1.7-1-5.2-1.3-7c-0.3,4.3-0.7,8.6-0.9,13c-1.1-5-2-10-3-14.9
	c-0.4,3.3-1.1,6.6-1.4,10c-0.7-4-1.3-8-1.7-12c-1.1,2.5-2.2,5-3.2,7.5c-0.8-7.6-1.7-15.3-2.9-22.9c-0.4,6.1-0.7,12.1-1.1,18.2
	c-1.5-4.9-2.5-10-3.2-15c-0.2,6.3-0.4,12.7-0.7,19c-0.7-8-1.3-16.1-1.9-24.1c-0.9,1.9-1.8,3.8-2.6,5.7c-1.1-5.3-2.1-10.6-2.8-15.9
	c-0.2,9.4-0.4,18.8-0.7,28.2c-0.5-11.4-0.8-22.8-2.1-34.1c-0.3,8-0.5,16-0.7,24c-1.7-9-3.5-18-4.6-27.1c-0.6,4.3-1.3,8.5-1.9,12.8
	c-0.3-3-0.8-8.9-1-11.9c-0.3,10.1-0.5,20.2-0.9,30.2c-0.8-23.2,0.1-46.4-0.7-69.6c-2.3,19.4-4.2,38.9-4.3,58.5
	c-1-25.9,0.3-51.8-0.9-77.8c-0.6,24.9-0.8,49.8-2.1,74.7c-1.2-29.3,0.5-58.6-1-87.9c-0.7,27.9,0.2,55.9-2.1,83.8
	c-1-31.3,0.6-62.6-1-93.9c-1.2,37,0.6,74.1-1,111.1c-1.3-51.5,0.7-103.1-1-154.6c-1.1,44.8,0.8,89.6-2.1,134.3
	c-0.3-14.5-0.3-28.9-1-43.4c-1,23.6,0.3,47.2-1,70.7c-1.9-17.4-0.9-35.1-2.9-52.5c-0.3,8.7-0.6,17.4-0.8,26.1
	c-0.4-1.7-1.1-5.2-1.5-6.9c-0.3,6-0.5,12-0.7,18c-0.5-4-0.9-8-1.3-12c-0.3,17.1-0.2,34.3-1.9,51.4c-1.1-7.3-1.6-14.7-2-22.1
	c-0.6,5.7-1.1,11.4-1.8,17.2c-1-5.7-1.8-11.4-2.6-17.1c-1.1,8-1.4,16.1-1.9,24.1c-1.3-10.4-1.4-20.8-1.9-31.3
	c-1.2,11.2-1.6,22.5-2.6,33.7c-0.9-11.7-1-23.5-1.9-35.2c-1,10.5-1.2,21.1-2.6,31.6c-0.3-9.9-0.4-19.8-0.4-29.7
	c-0.4,0-1.3,0-1.7,0.1c-0.2,9-0.6,18-1.2,26.9c-1.4-10.4-1.1-21-1.7-31.4c-1.1,9.4-1.5,18.8-2.2,28.3c-1.8-11.4-2.4-22.8-2.7-34.3
	c-0.4,13.8-0.5,27.5-0.8,41.3c-0.9-9.1-1.6-18.2-2.6-27.2c-0.9,7.4-1.6,14.8-2.5,22.2c-1.2-11-1.8-22.1-2.2-33.2
	c-0.3,11.2-0.5,22.3-1.2,33.4c-1.4-8.3-2-16.8-2.8-25.2c-0.5,7.4-1.1,14.8-2,22.1c-2.3-11.3-1.4-23-2-34.4
	c-0.8,10.8-1.6,21.5-3,32.2c-0.4-10.4-0.7-20.8-0.9-31.1c-0.7,9.1-1.6,18.3-2.9,27.3c-0.7-12.5-0.8-25-1.1-37.4
	c-1.1,11.1-1.8,22.2-2.9,33.2c-0.8-6.7-1.6-13.3-2.3-20c-0.6,9-1.2,18-2.2,26.9c-0.3-11.4-0.5-22.8-1.1-34.2
	c-0.9,9.2-1.5,18.4-2.3,27.7c-2.1-9-2-18.3-2.6-27.5c-0.5,8.3-1.2,16.7-2,25c-0.4-6.4-0.8-12.7-1.3-19.1c-2.4,8.6-2.5,17.5-3.1,26.3
	c-1.3-16.5-1.1-33-1.6-49.5c-1.5,14.4-1.6,28.9-2.1,43.4c-1.2-9.1-1.8-18.2-2.9-27.2c-0.8,7.3-1.3,14.7-2.2,22
	c-0.3-5.6-0.5-11.3-0.7-16.9c-0.3,2.7-0.9,8.2-1.2,10.9c-1-6.3-1.9-12.6-3-18.9c-0.4,7.7-0.7,15.3-1.1,23c-0.4-6.7-0.7-13.4-1-20.1
	c-0.4,8.1-0.6,16.1-1,24.2c-0.3-11.4-0.4-22.8-0.8-34.3c-0.3,8.7-0.7,17.4-1,26.2c-1.3-13.4-3.4-26.8-4.4-40.3
	c-0.3,16.8-0.6,33.6-1.9,50.4c-0.8-17.8,0.6-35.7-2-53.3c-0.4,10.1-0.6,20.1-1.1,30.2c-2.6-17.8,1-36.3-3.7-53.8
	c-1,15.2-0.5,30.5-1.1,45.7c-0.9-13.1-1.5-26.2-2.2-39.4c-0.4,15.5,0,31-1.7,46.5c-0.8-21.9-1.3-43.8-3.5-65.6
	c-0.6,21.2,0.3,42.4-0.9,63.6c-0.8-7.4-1.1-14.9-1.4-22.4c-0.7,0.5-1.4,1-2.1,1.4c-1.7-28.7-3.3-57.4-3.6-86.1
	c-1,28.6,0.1,57.2-0.6,85.8c-0.4-1.7-1.2-5.1-1.6-6.9c-0.4,6.7-0.7,13.3-1.1,20c-2.2-15-0.9-30.3-1.7-45.4
	c-0.7,13.8-1.4,27.6-2.2,41.4c-0.4-8.4-0.6-16.8-1-25.2c-1.1,14.5-1.6,29.1-1.2,43.7c-0.7-0.5-1.4-1-2.1-1.5
	c-0.4,6.5-0.9,13-1.5,19.5c-0.7-8.1-1.1-16.1-2-24.2c-0.7,12.8-1.9,25.5-4.2,38.1c-0.9-8.6-1.9-17.2-3.1-25.8
	c-0.7,8.3-1.6,16.7-2.7,25c-1.1-4.5-2-9.1-2.9-13.7c-0.5,1-1,2.1-1.5,3.1c-0.9-4.9-1.7-9.8-2.9-14.7c-0.4,6.4-0.8,12.8-1.1,19.2
	c-0.3-8-0.6-16.1-0.9-24.1c-0.8,5.3-1.6,10.6-2.2,16c-0.7-3.6-1.5-7.1-2.2-10.7c-0.2,4.6-0.5,9.2-0.7,13.8c-0.5-4.7-1-9.4-1.5-14.1
	c-0.7,4.6-1.3,9.3-1.8,13.9c-0.3-7.4-0.6-14.7-1-22.1c-0.8,5.1-1.5,10.2-2.1,15.2c-4.7-9-3-19.5-3.7-29.3c-0.2,3-0.9,5.9-1,9
	c-0.3-1.7-0.9-5.2-1.2-6.9c-0.4,6-0.7,12-1,18c-0.3-12.2-0.2-24.4-0.1-36.6c-0.8,0.5-1.6,1-2.3,1.6c-0.2-1.6-0.5-4.7-0.7-6.3
	c-0.7,5-1.4,10-1.9,15c-0.1-14.8-0.3-29.7-3-44.2c-0.5,18.8,0.1,37.7-0.9,56.5c-0.6-27.6-0.1-55.3-2.3-82.9
	c-2,26.6-0.8,53.3-2.7,79.9c-0.8-5.5-1.5-11.1-1.4-16.6c-0.5-32.2,0.9-64.3-0.7-96.5c-0.8,35.7-0.2,71.5-3,107.1
	c-1.2-49.8,0.7-99.7-1-149.5c-1.1,48.1,0.8,96.3-1.8,144.4c-0.4-8.7-0.8-17.4-1.3-26.1c-0.3,13.4-0.3,26.9-0.9,40.4
	c-1.2-31.3,0.5-62.6-1-93.9c-0.5,15.9-0.3,31.8-1.3,47.6c-4.2-16.2-1.4-33.2-2.8-49.7c-1.1,24.9,0.4,49.8-1,74.7
	c-0.5-15.1-0.3-30.3-0.9-45.4c-0.6,15.8-1.2,31.6-2.1,47.4c-0.9-22.2,0.1-44.4-0.8-66.5c-2.5,30.2-0.9,60.6-2.2,90.8
	c-0.6-15.8-1-31.6-2.1-47.4c-1.8,13.2-3.7,26.5-3.5,39.8c0.1,17-2,33.9-3.3,50.9c-1.1-4.3-2.2-8.7-3.2-13c-0.3,3.3-0.7,6.6-0.9,10
	c-1.1-3.2-2.1-6.3-3.1-9.5c-0.8,2.5-1.6,5-2.4,7.4c-0.9-7.7-1.6-15.4-2.5-23.1c-0.4,8.9-1,17.8-1.7,26.6c-2.4-8.7-2.3-17.7-2.7-26.6
	c-0.5,10.1-1.1,20.2-2,30.2c-2.3-16.8-0.4-33.8-2.8-50.5c-1,16.8-0.4,33.7-1.1,50.6c-1.2-9.7-1.7-19.5-2.9-29.2
	c-1.1,7-1.8,14-2.3,21.1c-0.8-13.4-1.4-26.9-2.7-40.3c-0.6,13.8-0.7,27.5-1.2,41.3c-1.3-12.9-0.7-26.1-3.8-38.7
	c-0.9,11.5-0.8,23.1-1.2,34.6c-4.4-16.8-2-34.3-3.2-51.4c-0.6,17.6-0.1,35.2-1.3,52.7c-4.6-23.1,0-46.8-3.6-70
	c-1.4,23.5,0.1,47.2-1.1,70.7c-2.7-23.1-2.3-46.4-3.2-69.7c-0.9,23.6,0.2,47.1-0.7,70.7c-4-23-2.9-46.4-4.2-69.6
	c-1.1,20.7,0.4,41.4-1.5,62c-3.8-21.1-0.9-42.7-2.6-64c-0.6,22.9-1.1,45.8-1.9,68.6c-2.4-23.1-2.4-46.4-3.2-69.6
	c-0.9,25.2,0.1,50.4-0.6,75.6c-4.8-29.4-1.7-59.2-3.2-88.8c-2,28.2-1.2,56.5-1.9,84.8c-0.2-4-0.7-12-1-16c-0.6,2.3-1.1,4.5-1.6,6.8
	c-0.4-25.5,0.6-51.1-0.7-76.6c-1.1,31.6,0.4,63.3-0.8,94.9c-1.9-30-2.6-60-3.3-90c-3.4,22,0.7,44.6-2.9,66.6
	c-2.1-20.8-0.8-41.7-2-62.5c-0.9,23.2,0.2,46.5-0.9,69.7c-0.5-15.8-0.7-31.8-4.1-47.3c-0.4,11.4-0.4,22.8-0.7,34.1
	c-1.6-15.4-3-30.9-3.4-46.3c-0.3,9.7-0.4,19.5-0.7,29.3c-0.7-2.6-1.8-5.4-2.4-7.9c-0.2,3.3-0.7,6.6-0.8,9.9c-0.3-3-1.1-6-1.2-9
	c-0.2,10.7-0.4,21.5-0.9,32.2c-0.6-17.8-0.3-35.6-0.5-53.4c-0.6,2.2-1.2,4.4-1.7,6.7c-0.2-3-0.6-8.9-0.9-11.8
	c-0.5,12.1-1.1,24.2-2,36.3c-0.1-7.5-0.1-15-0.2-22.5c-0.8,0.5-1.5,1.1-2.2,1.6c-0.2-1.8-0.5-5.5-0.6-7.3c-0.4,5-0.9,10.1-1.3,15.1
	c-1.4-8.3-2.1-16.8-2.9-25.2c-0.8,8-1.3,16-1.8,24.1c-0.7-7.8-1.2-15.5-2.3-23.2c-0.8,9.4-1.3,18.8-1.8,28.3
	c-0.4-12.1-0.5-24.2-0.8-36.3c-0.4,5.7-0.8,11.4-1.2,17.1c-0.2-3-0.7-6-0.7-8.9c-0.5,1.6-1,3.2-1.5,4.8c-2.7-23.4-2-47-2.9-70.6
	c-0.7,23.9,0,47.8-2,71.7c-0.4-10.8-0.6-21.5-1.1-32.3c-0.3,13.1-0.4,26.3-1.1,39.4c-1.5-14.1-1.3-28.3-1.9-42.4
	c-1.1,26.2,0.8,52.6-2.1,78.8c-0.2-8.3-0.2-16.7-0.2-25c-0.7,1.1-1.4,2.3-2,3.4c-0.2-1.7-0.7-5-1-6.6c-0.1,10.3-0.1,20.6-0.1,31
	c-0.5-1.4-1.5-4.2-2-5.6c0,4.5,0,9.1,0.1,13.6c-0.7-1.2-1.4-2.3-2-3.5c-0.1,1.5-0.2,3-0.3,4.4c-0.3-1-0.6-2-0.9-3.1
	c-1.9,2.3-3.7,4.7-5.8,6.8c-1-5.5-1.4-11.1-1.9-16.6c-1.7,7.7-2.5,15.5-3.8,23.2c-0.4-9-0.6-18.1-0.8-27.1
	c-0.8,6.8-1.2,13.7-2.8,20.4c-1.5-6.3-2.6-12.8-3.7-19.2c-0.5,8-0.8,15.9-1.6,23.9c-0.3-6.6-0.6-13.1-1-19.7c-1-1-2-2-3-3
	c-0.5,4.8-1,9.7-1.5,14.5c-0.3-5.6-0.5-11.3-0.8-16.9c-0.4,4-1.1,12.1-1.4,16.1c-1.3-10.1-1.4-20.2-2.6-30.3
	c-0.5,11.4-0.6,22.9-1,34.3c-6.2-15.4-2.6-32.4-4.2-48.5c-0.5,11.8-0.5,23.5-0.9,35.3c-0.4-7.7-0.7-15.5-1.2-23.2
	c-0.3,9.7-0.5,19.5-0.8,29.2c-0.3-8.7-0.8-17.5-1-26.2c-0.8,5-1.6,9.9-2.3,14.9c-0.4-12-1-24.1-1.8-36.1
	c-0.3,10.8-0.6,21.7-1.5,32.5c-1.9-18.5-0.4-37.2-1.6-55.7c-0.5,15.1-0.3,30.3-1,45.4c-0.4-8.4-0.5-16.8-0.8-25.2
	c-0.6,5.8-1.2,11.7-1.8,17.5c-1.9-22.6-0.1-45.4-1.3-68c-1.4,11.4-1.6,22.8-1.9,34.2c-0.7-3.3-1.4-6.7-2.1-10
	c-0.4,7.1-0.9,14.1-1.3,21.2c-0.9-10.1-1.4-20.2-1.9-30.2c-0.4,5.7-0.8,11.4-1.3,17.1c-0.4-18.3-0.2-36.7-0.2-55l-1.1,0
	c-0.3,35.5,0.8,71-0.6,106.5c-0.7-19-1.5-38-1.4-57.1c0-14.6,0.4-29.3-1.7-43.8c-0.5,10-1,20-1.9,29.9c-0.4-4.3-0.8-8.6-1.2-12.9
	c-2.6,32.3,0.4,64.7-2.6,97c-0.6-9.4-0.8-18.9-1.2-28.3c-0.4,3-1.1,5.9-1.3,9c-0.3-6.7-0.5-13.4-0.8-20.1
	c-0.3,18.9-3.1,37.6-4.1,56.5c-0.1-2.9-0.3-5.9-0.3-8.7c-0.9-0.1-1.8-0.1-2.7-0.2c-0.7,3.6-1.2,7.3-1.9,10.9
	c-0.5-10-0.8-20.1-2-30.1c-0.5,9.4-0.8,18.8-1.9,28.1c-1.1-7.3-1.7-14.7-2.4-22.1c-0.3,6.7-0.6,13.5-1,20.2
	c-1.3-3.9-2.3-7.9-3.2-11.8c-0.5,3.4-1.3,6.7-1.7,10.1c-1.7-8.4-1.6-17.1-2.2-25.6c-0.3,10.1-0.6,20.3-1.8,30.4
	c-2.1-9.7-1.6-19.7-2.3-29.5c-1.4,7.9-1.2,16-1.4,24c-1.1-2.6-2.1-5.2-3.2-7.8c-0.3,2-1,6-1.4,8c-0.7-8-1.3-16.1-1.9-24.1
	c-0.5,8.4-0.9,16.8-1.6,25.1c-0.9-7.4-1.8-14.7-2.6-22.1c-1.3,9.3-2.1,18.7-3,28c-0.3-10-0.7-20-1.7-29.9
	c-0.8,7.1-0.6,14.5-3.1,21.2c-0.4-5.8-0.8-11.5-1.1-17.3c-0.7,6-1.3,12.1-2.1,18.1c-1-7-1.6-14-2-21.1c-0.8,5-1.6,10.1-2.5,15.1
	c-0.7-5-1.2-10.1-1.8-15.1c-0.3,6.4-0.6,12.7-0.9,19.1c-1.5-9.3-2.7-18.7-3-28.2c-0.5,7.3-0.8,14.6-1.6,21.9
	c-0.9-3.6-1.6-7.1-2.5-10.7c-0.7,3.3-1.4,6.5-2,9.7c-0.7-5.6-1.3-11.2-2-16.8c-0.3,3-0.6,6-0.8,8.9c-1.2-3.3-2.5-6.7-3.6-10.1
	c-2.8,7-1.9,14.7-2.5,22c-0.7-3.6-1.4-7.2-2.1-10.8c-0.4,4.3-0.7,8.6-1.1,12.9c-1.4-11.4-1.5-22.8-1.9-34.2c-0.6,8-1.1,16-2,24
	c-0.2-3-0.7-8.9-0.9-11.8c-0.5,2.2-1,4.4-1.5,6.7c-0.3-7.3-0.6-14.6-1-21.9c-1.2,10.7-1.3,21.5-1.7,32.2c-0.6-6.7-1-13.4-1.7-20
	c-0.9,3.3-1.7,6.6-2.6,9.9c-1.1-6.1-1.4-12.3-1.7-18.5c-0.4,0-1.1,0-1.4,0c-0.2,7.2-0.5,14.4-0.7,21.6c-0.4-10.4-0.6-20.8-2-31.1
	c-0.9,13.1-1.5,26.1-2.1,39.2c-1.8-16.8-1.3-33.6-2-50.5c-0.4,10.8-0.5,21.7-2,32.5c-2.5-14.4-1.5-29.1-3.2-43.6
	c-0.5,17.8-0.1,35.7-0.9,53.5c-0.5-14.5-0.9-28.9-2-43.4c-0.7,8.4-1.2,16.9-3,25.1c-0.5-6.4-0.8-12.7-1.2-19.1
	c-0.3,9.4-0.6,18.8-1,28.2c-0.4-8.4-0.6-16.8-1-25.2c-0.3,11.1-0.5,22.2-0.9,33.3c-0.7-25.1-1.8-50.1-1.5-75.2l-1.1,0
	c-0.1,22,0.5,44.1-0.6,66.1c-1.2-9.4-1.5-18.8-2-28.2c-0.4,5.7-0.8,11.5-1.2,17.2c-3-10.5-2.3-21.5-2.8-32.3
	c-0.3,8.7-0.7,17.4-1,26.2c-0.4-5.7-0.8-11.4-1.2-17.1c-0.3,14.1-0.3,28.2-0.9,42.3c-0.4-10.8-0.6-21.5-1.9-32.2
	c-0.6,9.7-0.8,19.5-1.2,29.2c-0.4-15.9-0.4-31.8-2.8-47.5c-3.9,12.1-2.5,24.9-3.3,37.4c-0.4-10.4-0.6-20.7-1.3-31.1
	c-0.4,1.3-0.9,2.7-1.3,4c-0.7-0.5-1.3-1-1.9-1.5c-0.1,7.2-0.2,14.3-0.3,21.5c-0.6-6.4-1.2-12.8-1.9-19.2c-0.4,7.1-0.8,14.1-1.2,21.1
	c-0.5-6.1-1.1-12.2-1.6-18.2c-0.9,8.4-1.1,16.9-1.6,25.3c-0.3-6.4-0.6-12.7-0.9-19.1c-1.4,12.8-0.4,26.5-6.7,38.2
	c-1.1-4.1-2-8.2-3.2-12.2c-0.4,7.1-0.9,14.3-1.3,21.4c-0.5-9-0.8-18.1-2-27.1c-0.2,5-0.5,9.9-0.6,14.9c-1-1.2-1.9-2.3-2.8-3.4
	c-0.2,5.9-0.4,11.8-0.6,17.6c-0.4-10.1-0.5-20.2-0.9-30.2c-0.4,6.4-0.6,12.7-0.9,19.1c-0.3-3-1-6.1-1.2-9c-0.3,4-0.6,8-0.9,12
	c-2.4-9.2-2.8-18.7-3.2-28.2c-0.6,9.4-1.2,18.8-1.8,28.2c-0.4-2.7-0.9-5.3-1.3-8c-0.2,3-0.7,5.9-0.8,8.9c-0.7-7.5-1.1-15-2.1-22.4
	c-0.8,2.4-1.6,4.8-2.4,7.1c-2-15.3-2-30.7-3.7-46c-0.4,5.6-0.8,11.3-1.3,17c-1.4-14.6-1.4-29.3-1.3-43.9l-0.9,0
	c0,13.7,0.1,27.4-1.5,41c-0.6-8.4-0.8-16.9-1.3-25.3c-0.3,11.4-0.4,22.8-0.8,34.2c-1.8-19.8-1.2-39.7-2.3-59.5
	c-1.6,12.7-1.3,25.6-1.9,38.4c-0.4-15.8-0.3-31.6-0.8-47.4c-1,14.8-1.7,29.5-2.2,44.3c-1-23.9,0.1-47.8-0.9-71.6
	c-0.4,6-0.8,12.1-1.2,18.1c-0.3-8.1-0.6-16.1-0.9-24.2c-1.7,24.9-1.1,49.8-2,74.7c-0.8-15.8-1.4-31.6-2-47.4
	c-0.4,10.4-0.7,20.8-1.1,31.2c-0.4-9.1-0.6-18.1-1-27.2c-0.5,8.7-0.8,17.5-1.8,26.2c-1.5-5.9-1.9-12.1-2.6-18.1
	c-0.3,23.2,0.2,46.4-0.4,69.6c-0.5-4-1-8-1.4-12c-0.5,11.1-1.1,22.1-1.7,33.2c-0.7-2.9-1.3-5.7-2-8.6c-1.3,4.2-2.8,8.3-4.2,12.4
	c-0.7,3.4-1.5,6.7-2.1,10c-0.7-2.2-1.4-4.3-2-6.5c-0.7,6.3-1.3,12.5-2.1,18.8c-0.3-7.3-0.6-14.7-0.9-22c-0.8,7-1.5,14-2.1,21
	c-0.3-5.6-0.6-11.2-0.9-16.9c-0.8,4.6-1.6,9.3-2.3,13.9c-0.2-7-0.4-14-0.5-21c-0.7,5-1.4,10-2.1,15c-0.4-4.7-0.7-9.3-1.1-14
	c-0.6,4.7-1.2,9.4-1.9,14c-0.3-4-1-12.1-1.4-16.2c-1,8.7-1.4,17.5-2,26.2c-0.2-13.2-0.3-26.3-1.1-39.5c-0.9,8.1-1.3,16.2-1.9,24.3
	c-0.4-9.4-0.6-18.9-1.6-28.2c-0.5,8.7-1,17.5-1.3,26.2c-0.4-12.2-0.6-24.3-1.4-36.5c-1.9,12.4-1.1,25-1.7,37.5
	c-0.5-10.4-0.6-20.9-2-31.3c-0.5,8.4-0.8,16.8-1.1,25.2c-0.6-11.4-1.2-22.8-2-34.3c-0.4,6-0.7,12-1,18c-0.8-5.9-1.5-11.9-2.1-17.9
	c-0.4,4.7-0.8,9.3-1.2,14c-0.9-5.3-1.3-10.7-1.9-16.1c-0.3,8.4-0.5,16.8-0.9,25.1c-1.3-11.4-1.5-22.9-2-34.3
	c-0.3,11.5-0.5,22.9-1.2,34.4c-1.6-13.3-1.3-26.7-1.3-40l-0.8,0c-0.1,10.3-0.3,20.6-0.8,30.9c-1.1-7.2-1.3-14.5-1.7-21.8l-0.5,0
	c-0.2,8.6-0.3,17.1-0.6,25.7c-1-7.7-1.7-15.4-2.1-23.2c-0.4,7.4-0.7,14.8-1.2,22.2c-1.4-12.1-1.3-24.3-1.9-36.4
	c-0.3,9.7-0.5,19.5-0.9,29.3c-0.7-9.7-1.3-19.4-1.8-29.2c-0.5,7.4-1.3,14.8-2,22.1c-0.4-3-0.9-6.1-1.3-9c-0.5,8-0.9,16-1.7,24
	c-0.5-7-0.9-14.1-1.4-21.1c-0.2,15.2,0.2,30.4-1.7,45.4c-0.8-16.5-0.5-33-1.3-49.5c-0.8,19.9,0.5,39.8-1.7,59.6
	c-1.4-22.2-0.1-44.4-1.3-66.6c-0.6,20.9-0.3,41.8-2.1,62.6c-0.8-23.5,0.4-47.1-0.9-70.7c-0.8,21.9,0.4,43.8-2,65.7
	c-0.5-17.9-0.1-35.7-0.9-53.5c-1.2,16.8-1.4,33.7-2.1,50.5c-0.7-21.2,0.1-42.4-1-63.6c-0.8,23.2-1,46.5-2.1,69.7
	c-0.6-19.9,0.1-39.7-1-59.6c-1.3,12.8-1.5,25.6-2.1,38.4c-0.4-18.2-0.1-36.4-0.8-54.5c-1.7,22-1.6,44.1-1.5,66.1l-1.1,0
	c-0.2-21.7,1-43.5-1.2-65.2c-0.5,7.1-1.1,14.1-1.5,21.2c-0.3-11.8-0.3-23.6-1-35.4c-3.4,26.1,0.3,52.6-1.8,78.9
	c-0.7-21.2-1.1-42.4-2.1-63.6c-0.6,19.2-0.1,38.4-0.9,57.5c-0.7-16.8,0.1-33.7-2-50.4c-0.5,15.4-0.4,30.9-1,46.4
	c-2.9-27.5-0.5-55.2-2.1-82.8c-1.1,25.9,0.2,51.9-1,77.8c-2.8-27.2-0.6-54.6-2.1-81.8c-1.4,34.3,0.6,68.7-1.1,103
	c-0.6-43.8-1-87.6-2-131.3c-1.8,38,1.8,76.2-1.9,114.1c-1.1-21.5,0.1-43.1-1.1-64.6c-0.6,17.8-0.2,35.6-0.8,53.5
	c-2.7-16.7-1.2-33.6-2.2-50.4c-1,22.5,0.6,45.2-2,67.6c-1.5-42.4,0.6-84.8-1.1-127.2c-1,26.7,0.4,53.5-0.8,80.2
	c-1,21.4-0.1,42.8-1.1,64.2c-1.4-42.7,0.6-85.5-1-128.3c-1,39.7-1.2,79.5-2.1,119.2c-1.2-33,0.4-66-0.9-99
	c-1.7,26.2-1.2,52.5-2.1,78.8c-0.6-17.5-0.2-35-1.1-52.5c-2,17.7-1.3,35.6-1.4,53.4c-0.6-1.5-1.2-3.1-1.8-4.6
	c-0.8,8.3-1.3,16.6-1.8,24.9c-3.8-8.2-3.7-17.3-4.1-26.1c-0.6,5.3-1.1,10.6-1.9,15.9c-0.4-3.3-1-6.7-1.3-9.9
	c-0.7,7.7-1.3,15.4-2,23.1c-0.8-7.3-1.3-14.7-1.7-22c-0.2,1.3-0.5,3.7-0.6,5c-0.7-0.4-1.3-0.9-2-1.3c-0.7,5.8-1.5,11.6-2.5,17.3
	c-1.2-13.5-2.9-26.9-4.4-40.3c-1.2,11.4-1.4,23.1-4.7,34.2c-0.9-5.4-1.6-10.7-2.5-16.1c-1.3,7-2.1,14.1-3.1,21.1
	c-1.1-11.4-1.2-22.8-1.6-34.2c-0.4,3.3-1,6.6-1.3,10c-0.3-13.7,0.1-27.6-1.9-41.2c-0.3,11.3-0.4,22.7-0.5,34.1
	c-0.8-3-1.6-5.9-2.4-8.9c-0.3,5.7-0.6,11.4-0.8,17.1c-0.3-1.8-0.9-5.3-1.2-7.1c-0.8,2.3-1.5,4.7-2.2,7c-0.2-6.7-0.5-13.4-0.7-20
	c-0.4,7-0.8,14.1-1.1,21.1c-0.3-9.1-0.6-18.1-0.9-27.2c-0.4,4.7-0.8,9.3-1.2,14c-0.3-7.4-0.5-14.7-0.7-22c-0.7,7.6-1.3,15.3-2,23
	c-0.8-6.3-1.6-12.6-2.5-18.8c-0.2,10-0.4,20-0.8,30.1c-0.4-10.8-0.6-21.5-0.9-32.3c-0.4,3-0.9,5.9-1.2,9c-0.6-6.4-1.1-12.7-1.9-19.1
	c-0.7,10.5-1.1,21-3.4,31.2c-2.4-8.8-2.3-18.1-2.7-27.1c-0.3,2.7-1,8.2-1.4,11c-0.7-24.2,0.5-48.4-0.9-72.6
	c-0.9,23.6,0.2,47.1-0.8,70.7c-0.5-4.7-0.9-9.4-1.4-14.1c-0.3,16.3-0.2,32.6-0.1,48.9l-1.1,0c-0.1-22,0.4-44.1-0.3-66.1
	c-0.8,12.4-1.5,24.9-2.3,37.3c-0.9-15.1-1.4-30.3-2.1-45.4c-0.5,17.7-0.4,35.4-0.3,53l-1-0.1c0-11.9-0.2-23.9-0.7-35.8
	c-0.6,27.6-0.1,55.2-1.7,82.8c-0.3-1.7-1-5.2-1.4-6.9c-1,6.7-1.8,13.3-2.7,20c-0.7-5.7-1.3-11.4-2.1-17c-0.8,5-1.5,10-2.2,15
	c-1-7.3-2-14.6-3.1-21.9c-0.4,6-0.8,12-1.2,18c-1-5.7-1.7-11.4-2.6-17.1c-0.5,6.4-0.9,12.7-1.3,19.1c-0.8-5-1.4-10.1-2.1-15.2
	c-0.9,4.3-1.7,8.7-2.6,13c-0.9-6.3-1.5-12.6-2.2-18.8c-0.5,7.3-1,14.6-1.7,22c-0.6-7.5-1.1-15-1.7-22.5c-0.9,6.7-1.4,13.5-2.2,20.3
	c-0.9-5.1-1.6-10.1-2.7-15.2c-0.5,3.1-1.4,9.2-1.9,12.3c-0.9-7.3-1.4-14.7-1.9-22.1c-0.8,9.7-1.5,19.4-2.2,29.2
	c-1.7-12.7-1.2-25.5-2.7-38.2c-0.5,10.4-1,20.8-2,31.1c-0.6-6.2-1.1-12.4-1.7-18.5c-0.6,6.1-1,12.3-1.4,18.4
	c-0.8-5.4-1.4-10.8-2.3-16.1c-0.9,5-1.6,10.1-2.4,15.1c-1.1-9-1.1-18.2-1.7-27.2c-0.9,9.7-1.5,19.5-2.5,29.3
	c-0.9-10.4-1.7-20.8-2.2-31.2c-0.5,6.7-1.1,13.4-1.9,20.2c-0.9-4.3-1.7-8.6-2.3-12.9c-0.8,5.3-1.9,10.6-2.9,15.9
	c-0.2-2.8-0.7-8.3-1-11.1c-0.6,4.1-1.2,8.1-1.7,12.2c-1.8-11.4-2-22.9-2.4-34.3c-0.8,10.7-1.5,21.4-2,32.1
	c-0.8-8.7-1.6-17.4-2.3-26.1c-1.5,9.3-1.9,18.7-2.9,28.1c-0.3-15.1-1.3-30.2-3-45.1c-0.2,12.1-0.4,24.2-1,36.3
	c-1.8-11-1.4-22.3-2-33.4c-0.3,11.7-0.4,23.5-0.7,35.2c-1.2-10-2.1-20.1-3.2-30.2c-0.9,7.3-1.5,14.7-2.1,22.1
	c-0.4-12-1-24.1-2.1-36.1c-0.4,15.7-0.3,31.5-0.7,47.2c-0.8-9.8-1.7-19.5-3.4-29.2c-1.3,10.7-1.5,21.5-2,32.2
	c-0.5-18.2-1.1-36.3-2.1-54.5c-0.5,17.5-0.3,34.9-0.7,52.4c-3-22.4,0.1-45.2-4.4-67.4c-0.2,14.1-0.3,28.1-0.8,42.2
	c-0.7-20.2-1.2-40.4-2-60.5c-0.6,17.1-0.4,34.3-0.9,51.4c-1.8-18.1-2.7-36.3-3.2-54.5c-0.4,14.1-0.2,28.3-3.1,42.2
	c-0.8-22.5,0.3-45-1-67.5c-1,25.2,0.4,50.5-0.9,75.7c-0.9-15.1-1-30.3-2.9-45.4c-0.5,13.2-0.5,26.4-1.5,39.6
	c-4.2-25.8-0.8-52.1-2.7-78c-1.2,24.5,1,49.2-2,73.5c-0.3-5.6-0.6-11.3-0.9-16.9c-0.3,4-0.7,8-1,12c-0.3-2.7-0.9-8.2-1.2-10.9
	c-0.4,3.3-0.8,6.6-1.1,10c-0.3-6-0.7-12.1-1-18.1c-0.3,12.8-0.4,25.6-0.8,38.3c-0.6-11.1-1.1-22.2-2.2-33.2
	c-0.4,12.1-0.4,24.2-0.6,36.2c-0.9-2.3-1.8-4.5-2.7-6.8c0,4.2-0.1,8.5-0.1,12.7c-0.5-1.4-1.4-4.2-1.9-5.6
	c-0.2,6.3-0.4,12.6-0.7,18.9c-0.3-12.4-0.5-24.9-1-37.3c-0.7,18.2,0.4,36.5-1.7,54.7c-0.7-1.5-2-4.5-2.6-6c-0.1,1.9-0.3,5.8-0.4,7.7
	c-0.7-6-1.3-12-2.1-18c-0.5,5-0.8,10-1.2,15c-0.6-4-1.1-7.9-1.7-11.9c-0.5,1.6-1,3.1-1.6,4.7c-0.5-8-0.9-15.9-1.8-23.9
	c-0.5,6-1,12.1-1.6,18.1c-0.8-6.7-1.1-13.5-1.7-20.3c-0.2,9.4-0.4,18.8-0.7,28.1c-0.4-7-0.7-14.1-1.1-21.1
	c-0.4,4.4-0.7,8.7-1.1,13.1c-0.2-2.9-0.4-5.9-0.5-8.8c-1.2,3.3-2.3,6.7-3.6,9.9c-0.3-11.2-0.5-22.3-0.8-33.4
	c-1.1,11.1-1.7,22.2-2.1,33.3c-1.2-10-1.5-20-1.6-30.1c-0.4,1.4-1.2,4.2-1.6,5.6c-0.4-8.7-0.6-17.4-1.7-26
	c-0.6,11.4-0.7,22.8-0.9,34.2c-0.8-8.7-1.6-17.3-2.3-26c-0.2,7.3-0.5,14.6-0.8,22c-0.3-8.7-0.8-17.4-1.1-26.2
	c-0.4,9.1-0.7,18.1-1.1,27.2c-0.3-13.1-0.4-26.2-0.9-39.4c-0.2,4.5-0.2,9-0.3,13.4c-0.7-0.6-1.5-1.2-2.2-1.7
	c-0.2,5.8-0.4,11.7-0.6,17.5c-0.4-10.1-0.5-20.2-1-30.2c-0.4,11.1-0.6,22.2-1,33.3c-0.3-11.1-0.5-22.2-0.9-33.3
	c-0.3,8.6-0.5,17.1-0.6,25.7l-0.7-0.1c-0.2-8.6-0.4-17.1-0.7-25.7c-0.3,9.4-0.7,18.8-1,28.2c-0.2-8.6-0.5-17.1-0.6-25.7l-0.7,0
	c-0.2,8.6-0.4,17.1-0.8,25.7c-0.3-9.4-0.5-18.8-0.7-28.2c-0.8,7.7-1.4,15.5-3,23.2c-0.6-10.4-0.9-20.9-1.3-31.3
	c-0.3,10.8-0.6,21.5-1,32.3c-0.4-9.4-0.6-18.8-1.1-28.2c-0.3,9.4-0.5,18.8-0.8,28.2c-0.4-2.6-0.7-5.2-1-7.8
	c-0.2,1.2-0.4,2.3-0.6,3.5c-1.4,0.2-2.7,0.4-4.1,0.5c-0.1,7-0.2,13.9-0.3,20.9c-0.8-5.3-1.6-10.6-2.4-15.9
	c-0.3,5.6-0.6,11.3-0.9,16.9c-0.3-9.7-0.4-19.4-0.7-29.2c-1.6,14.7-1.7,29.5-2,44.3c-0.5-7.4-1-14.9-1.6-22.3
	c-0.8,6.4-1.2,12.8-1.8,19.2c-0.2-14.1-0.4-28.3-1.9-42.3c-0.3,14.5-0.3,29-1,43.4c-0.5-16.2-0.3-32.3-1-48.5
	c-3,18.7-0.6,37.7-1.8,56.6c-0.5-4.4-1-8.7-1.5-13.1c-0.7,8-1.3,16.1-1.8,24.1c-0.4-15.5-0.7-31-1.9-46.4c-0.4,6-0.8,12.1-1.3,18.1
	c-0.6-21.9,0.3-43.7-0.9-65.6c-0.5,26-0.7,52-2.1,77.9c-1.3-3.9-2.4-7.9-3.5-12c0.1,5.3,0.3,10.6,0.4,16c-1.1-0.5-2.1-1-3.1-1.5
	c-0.4,3.5-0.9,7-1.3,10.5l-1.7-5.9c-0.8,4.3-1.4,8.6-1.9,12.9c-0.6-7-1.1-14-1.8-21c-0.3,4-0.8,12-1.1,16c-0.5-9.7-1-19.4-2.1-29.1
	c-0.4,8-0.6,16-1,24c-0.4-7.8-0.6-15.5-1.1-23.3c-2.2,7.2-4.2,14.6-6.2,21.9c-0.7-1.4-1.5-2.8-2.2-4.2c-0.1,1.4-0.3,2.8-0.4,4.3
	c-1-5.3-2-10.6-3.1-15.9c-0.5,3.4-0.9,6.7-1.4,10.1c-0.3-4.7-0.5-9.3-0.7-14c-0.2,1.7-0.7,5.1-0.9,6.9c-1-3.7-1.9-7.3-2.9-11
	c-0.3,2.8-1,8.3-1.4,11c-0.3-2.8-0.9-8.3-1.1-11c-0.7,5.3-1.3,10.7-1.9,16c-0.6-4.3-1.2-8.6-1.9-12.9c-0.3,4-1,12.1-1.3,16.1
	c-0.3-6.7-0.4-13.4-0.6-20c-1,10.4-2.3,20.7-3.2,31.1c-0.6-7-1-14-1.9-21c-0.5,6.3-0.8,12.7-1.2,19c-0.6-8.1-1-16.2-1.9-24.2
	c-0.5,7.7-0.8,15.5-1.2,23.2c-0.4-10.4-0.6-20.9-1.5-31.3c-0.5,7.1-1.1,14.1-1.5,21.2c-0.5-10-0.7-20.1-2-30.1
	c-0.4,10.7-0.5,21.4-0.8,32c-0.9-11-1.7-22.1-2.3-33.2c-0.3,13.8-0.4,27.5-0.9,41.3c-1.8-16.1-1.4-32.3-2.2-48.4
	c-0.5,13.3-0.4,26.6-0.3,39.9c-0.5,0-1.5,0-2,0c0.1-13.6,0-27.3-0.6-40.9c-0.6,16.8,0.3,33.7-2,50.3c-0.5-17.4-0.2-34.9-1.1-52.3
	c-0.5,16.8-0.2,33.7-0.9,50.5c-2-21.5-1.1-43.1-2-64.6c-0.6,21.5-0.7,43.1-2.2,64.6c-0.4-16.8-0.1-33.7-0.9-50.5
	c-0.5,13-0.4,25.9-0.4,38.9h-2.1c0.1-18.7,0.3-37.4-0.6-56c-0.6,17.9-0.1,35.8-1.2,53.6c-1.5-10.4-1.3-20.9-1.8-31.4
	c-0.3,11.1-0.6,22.3-1.6,33.4c-1.4-20.4-0.8-40.8-0.8-61.2l-1.1,0c0.1,17,0.2,34-0.4,51c-2.6-19.8-1-39.7-2.1-59.5
	c-0.6,16.5-0.3,33.1-2.2,49.5c-0.8-23.2,0.3-46.5-0.9-69.7c-0.6,23.2-0.8,46.5-2.1,69.7c-0.4-16.5-0.2-33-0.9-49.5
	c-1.2,13.8-1.5,27.6-2.1,41.4c-0.4-14.4-0.4-28.9-0.7-43.3c-0.9,10.7-1.6,21.4-2.4,32.1c-0.4-17-0.4-34-0.3-50.9l-1.1,0
	c-0.1,15.9,0.8,32-1.7,47.8c-0.7-20.1,0.1-40.3-0.7-60.4c-1.6,15.4-1.6,30.9-2.2,46.4c-0.5-17.8-0.2-35.7-0.9-53.5
	c-1.7,26.1-1.6,52.2-1.5,78.3l-1.1,0c-0.5-24.3,1.5-48.8-1.6-73.1c-1.1,25.9,0.4,51.8-1,77.6c-0.4-14.8-0.1-29.7-1.8-44.5
	c-1.1,20.9-0.1,41.8-1.2,62.6c-1.2-29.3,0.3-58.6-1-87.9c-3.2,25.5-0.4,51.2-2.1,76.8c-0.5-16.2,0-32.4-1.7-48.5
	c-1.8,25.9,0.2,51.9-1.4,77.8c-1.5-36.9,1.1-73.8-1.4-110.6c-0.8,7.4-1,14.8-1.2,22.2c0.3,33.7,0.1,67.3,0.2,101l-1.1,0
	c-0.2-27.1,1-54.3-1.6-81.3c-0.5,15.8-0.6,31.7-2,47.4c-0.4-8.1-0.6-16.1-1-24.2c-1.4,19.1,2,38.9-2.9,57.6
	c-0.4-7.7-0.7-15.5-1-23.3c-0.2,4-0.4,8-0.6,11.9c-0.6-1.6-1.2-3.1-1.8-4.7c0,3.3,0,6.4,0,9.7c-0.7-1.2-1.3-2.4-2-3.6
	c-0.3,2-0.9,6-1.2,8c-0.5-3-1-6.1-1.5-9c-0.9,3.2-1.9,6.5-2.8,9.8c-1.7-0.7-3.4-1.3-5.1-2c-1.4,3-2.9,6-4.5,8.9
	c-1.1-3.9-2.1-7.8-3.1-11.7c-0.4-0.1-1.2-0.3-1.6-0.4c-3.2,3.6-6.7,6.9-9,11.2c-0.9,0.1-2.3,0.3-3.6,0.4c0.1,0.4,0.2,0.8,0.2,1.1H71
	c0.3,2.7,0.8,8.2,1,11c2.2-3.4,3.6-7.2,5-10.9c1.4,3.5,2.9,7,4.4,10.4c0.7-1.4,2-4.3,2.6-5.7c0.6,3.5,1.1,7.1,1.7,10.7
	c0.6-1.5,1.1-3.1,1.7-4.6c0.2,1.7,0.5,5.1,0.7,6.8c0.6-3.4,1.1-6.8,1.8-10.2c1.4-2,2.7-4.1,4-6.1c0.9,3.8,1.7,8,5,10.6
	c0.2,1.3,0.7,4,1,5.4c0.6-1.1,1.3-2.2,1.9-3.3c0.2,6.3,0.3,12.6,0.5,18.8c0.4-5.7,0.7-11.4,1.1-17.1c0.3,4,0.6,8,0.9,12
	c0.4-2.7,1.1-8.2,1.4-10.9c0.2,9.9,0.2,19.8,0.2,29.7l0.9,0c0.1-11.9,0.2-23.9,0.6-35.8c1.9,25.6,0.6,51.4,2.5,77
	c1.8-16.9,0.6-33.8,1.5-50.7c0.8,18.2-0.5,36.5,1.9,54.6c1.4-23.2-0.1-46.5,1.2-69.7c1.2,26.3-0.7,52.7,1.3,78.9
	c2.9-25.5-0.2-51.3,1.8-76.9c1.2,40.4-0.5,80.8,0.8,121.2c3.9-38.6-0.2-77.5,2.1-116.1c1.9,35.6-1.9,71.4,2.1,106.9
	c1-33.3-0.6-66.6,0.9-99.8c1,26.1-0.3,52.1,0.8,78.2c0.9,19.7,0.2,39.5,1.2,59.2c1.3-46.8-0.7-93.6,1-140.4
	c0.9,23.4-0.3,46.7,0.8,70.1c1,21.4,0.1,42.8,1.1,64.2c1.4-41.1-0.6-82.2,1.1-123.2c2,42.4,0.8,84.8,2,127.3
	c1.3-39.4-0.4-78.8,0.9-118.1c3.7,31.1,0,62.6,2.2,93.9c1.1-35.3-0.5-70.7,0.8-106c3.1,45.4,0.4,90.9,2.1,136.3
	c1.4-42.8-0.7-85.6,1.1-128.4c3.4,24.4,0,49.3,1.9,73.8c1.1-24.3-0.3-48.6,1.1-72.8c1.7,7.8,1.4,15.9,1.5,23.8
	c-0.1,20.4-0.6,40.7,0.4,61.1c1.4-26.1-0.9-52.2,1.5-78.2c0.8,5.1,1.2,10.3,1.8,15.5c0.3-6.4,0.6-12.8,1-19.1
	c1.7,16.6,1.3,33.3,1.2,50h1c-0.2-26.1,0.7-52.2,1.7-78.3c0.4,13.4,0.4,26.9,1,40.4c0.3-12.1,0.3-24.3,1.7-36.4
	c1.2,19.5,0.2,39.1,1.3,58.6c0.6-18.5,0.1-37,0.9-55.5c0.6,10.7,0.7,21.5,2.2,32.1c0.3-13.1,0.3-26.2,0.8-39.2
	c0.9,12.1,1.6,24.2,1.9,36.3c0.7-8,1.3-16,2.2-23.9c0.3,5.6,0.7,11.3,1,16.9c0.6-9,0.9-18.1,2-27c0.4,9,0.6,18,1,27
	c0.4-8.1,0.6-16.1,1-24.2c0.4,6,0.7,12,1,18.1c0.7-7.6,1.3-15.3,1.8-23c0.7,5.3,1.4,10.6,2.2,15.9c0.4-5.7,0.7-11.4,1-17.1
	c0.3,2.6,0.6,5.2,0.9,7.9c0.7-4.7,1.3-9.3,2-13.9c0.5,10.4,0.7,20.9,1.2,31.3c1.3-10.4,1.5-20.8,2-31.3c0.3,7.4,0.6,14.8,0.9,22.1
	c0.5-7.5,1.1-15.1,1.8-22.6c1,11.5,1,23.1,1.2,34.7c0.6-10.4,1.2-20.8,2.2-31.2c0.3,7,0.6,14,0.9,21.1c0.7-5.7,1.2-11.3,2.1-17
	c0.4,9,0.7,18.1,1,27.1c0.5-8.1,1-16.1,1.8-24.2c0.5,7.7,1,15.5,1.5,23.2c1.4-8,1.4-16.1,1.8-24.2c0.6,5.7,1.2,11.4,2,17
	c0.4-8,0.7-16.1,1-24.1c0.7,6,1.2,12.1,2.1,18c0.5-8.4,0.6-16.8,1-25.1c0.5,9.1,0.7,18.2,2,27.2c0.6-10.1,0.7-20.2,1-30.2
	c0.6,12.8,1.3,25.5,2.2,38.3c0.3-9.7,0.5-19.5,0.9-29.2c1,11.4,1.6,22.9,2.1,34.3c0.3-12.1,0.4-24.2,1.6-36.2
	c0.5,7.3,1,14.7,1.4,22.1c0.4-10.4,0.5-20.8,2-31.1c0.3,8,0.6,16,0.8,24c0.5-7.2,1.1-14.3,1.7-21.5c0.6,4.8,1,9.6,1.5,14.4
	c0.7-2.9,1.4-6,2.1-8.9c0.3,4,0.5,7.9,0.8,11.9c0.4-1.7,1.1-5.2,1.4-6.9c1.3,5.3,2.6,10.6,3.9,16c0.9-8,1.5-16,1.9-24
	c0.3,4.3,0.6,8.6,0.9,13c0.6-6.4,1.1-12.7,1.8-19c0.5,5.7,0.9,11.4,1.3,17.1c0.8-7,1.5-14,2.1-21c0.5,15.8,1.4,31.6,2.7,47.3
	c0.9,15.8,0.5,31.6,1.3,47.5c-0.4-23.4,1.7-46.6,4.8-69.7c0.4,3.3,0.8,6.6,1.2,10c0.3-5.3,0.7-10.7,1-16c0.4,12.8,0.9,25.5,2,38.3
	c0.4-13.8,0.4-27.5,0.8-41.3c3.4,20.3,3.8,41,4.2,61.6c0.5-12.1,0.6-24.3,2.7-36.3c0.4,7,0.8,14,1.1,21c0.5-8,1.1-16,2-24
	c0.6,12.4,0.7,24.8,1.1,37.2c1.2-13.8,1.7-27.6,2.2-41.3c0.3,14.8,0.3,29.6,0.9,44.4c0.5-8.5,0.8-17.1,1.6-25.6
	c0.7,6.1,1,12.3,1.6,18.5c0.7-5.3,1.4-10.6,2.2-15.9c0.2,15.4,0.1,30.9,0.8,46.3c0.7-19.5,0.1-39.1,0.9-58.6
	c1.5,7.2,2.3,14.6,3.1,22c0.3-1.6,0.9-4.9,1.2-6.6c0.2,3,0.6,8.9,0.8,11.9c0.4-9.4,0.8-18.8,1.5-28.2c0.5,5.3,1,10.7,1.5,16
	c0.3-4,0.8-12,1.1-16c0.3,8.4,0.5,16.8,0.8,25.2c0.7-12.5,1.8-24.9,3.2-37.3c1.1,9,1.6,18.1,2.7,27.1c1.8-8.6,3-17.3,3.3-26
	c0.7,4.2,1.4,8.5,2,12.7c0.6-7,1-13.9,1.8-20.8c0.4,6,0.8,12,1.3,18c0.3-7.7,0.6-15.4,0.9-23.2c0.4,6,0.7,12.1,1.1,18.1
	c0.8-3.9,1.6-7.9,2.2-11.9c0.8,10.7,1.3,21.4,1.9,32.1c0.3-12.8,0.3-25.6,1.4-38.4c0.3,4,1,12.1,1.3,16.1c1.6-7.1,3-14.2,5.2-21.1
	c1,4.3,2,8.6,3,12.9c0.6-3.9,1.3-7.9,2-11.8c0.8,3.5,1.5,7.1,2.2,10.7c0.1-1.4,0.3-4.1,0.3-5.4c1,1,1.9,2,2.9,3
	c0.6-3.1,1.3-6.3,1.9-9.3c1,8,1.3,16,1.9,24.1c0.3-8.1,0.6-16.1,1-24.1c0.4,13.4,0.3,26.9,0.8,40.3c1.1-8.4,1.8-16.8,3-25.2
	c1.9,15.7,1.5,31.6,2.1,47.4c0.5-13.5,0.4-27,2-40.4c2.8,24.4,0.8,49.1,1.8,73.6c2.8-21.8,1-43.7,2.2-65.6
	c0.7,15.6,1.1,31.3,2.6,46.9c0.8-8.2,0.9-16.4,1.2-24.6c0.3,1.7,0.9,5.2,1.2,6.9c0.4-2.9,0.6-6,1.1-8.9c0.3,4.7,0.6,9.3,0.9,14
	c0.4-7.8,0.8-15.5,1.4-23.3c1.3,14.8,1.1,29.7,1.6,44.5c0.4-10.8,0.6-21.5,1-32.2c0.8,10.4,1.7,20.8,3.2,31.1
	c0.3-20.5,0.8-41,3.1-61.5c0.4,17.8,0.1,35.7,0.8,53.5c0.7-11.2-0.7-23,3.9-33.5c0.4,7.1,0.8,14.2,1.2,21.3
	c1.5-14.1,1.5-28.2,2.1-42.3c0.4,12.8,0.4,25.6,0.7,38.4c0.4-2.6,0.8-5.3,1.3-7.9c0.3,2.7,0.9,8.2,1.2,10.9
	c0.5-20.8-0.2-41.7,0.7-62.5c0.7,15.2,1,30.3,3,45.4c0.6-11.7,0.6-23.5,0.9-35.2c0.6,9.3,1.1,18.7,2.2,28
	c1.1-14.4,1.5-28.8,2.1-43.3c1.3,13.8,1.5,27.6,2.2,41.4c0.9-8,1.4-16.1,2.1-24.2c1.3,13.1,1.9,26.2,2.9,39.3
	c0.6-20.5-0.4-41.1,1.9-61.5c0.6,17.1,0.3,34.3,1,51.4c0.3-9,0.4-18,0.6-27.1c0.4,1.4,1.3,4.2,1.8,5.5c0.3-4.6,0.5-9.2,0.8-13.8
	c0.8,5.6,1.4,11.2,2.1,16.9c0.4-7.7,0.8-15.4,1.5-23c0.5,7.1,0.9,14.1,1.4,21.2c1.3-10.7,2.4-21.5,3.1-32.2
	c0.3,12.8,0.7,25.5,1.9,38.2c0.8-12.1,1.5-24.1,2.2-36.2c0.5,9.8,0.9,19.5,2,29.3c0.6-11.8,1.2-23.5,2.1-35.3
	c0.4,11,0.6,22.1,1.9,33.1c0.6-6.7,1.1-13.4,1.9-20c1,4.6,1.8,9.3,2.3,14c0.5-5.7,1-11.3,1.8-17c0.8,6.7,1.5,13.4,2.1,20.1
	c0.6-6.3,1.2-12.6,2-18.9c0.5,4.6,0.9,9.3,1.5,13.9c1.3-7,2.2-14.1,3-21.2c0.5,6,0.9,12,1.4,18.1c1.3-3.2,2.4-6.5,3.6-9.7
	c0.3,3.3,0.6,6.5,1.1,9.9c1-7.4,2.1-14.8,2.8-22.3c0.2,9.8,0.4,19.6,0.9,29.4c1.6-6.7,2.2-13.5,3.3-20.3c0.7,3,1.4,5.9,2.1,8.9
	c0.6-6,1.1-12,1.6-18c0.6,7.7,1.2,15.4,1.9,23.1c0.6-6.4,1.1-12.8,1.8-19.1c0.7,4,1.3,8,2,12c0.7-2.6,1.5-5.3,2.3-7.9
	c0.9,3.6,1.6,7.2,2.4,10.8c1-6.2,1.9-12.5,2.8-18.7c0.5,4.7,0.9,9.4,1.3,14.1c1.3-5.3,1.9-10.7,2.7-16.1c0.4,6,0.9,11.9,1.5,17.9
	c0.9-3.6,1.6-7.2,2.4-10.8c0.7,4.3,1.4,8.6,2.2,12.9c0.8-5,1.3-10,1.9-15c1,10.3,2.3,20.6,3.8,30.9c1.1,15.7,0.5,31.5,0.5,47.3l1,0
	c0-12,0.2-23.9,0.7-35.8c0.4,11.4,0.5,22.9,1.1,34.3c0.3-14.1,0-28.3,1.6-42.4c1.1,14.8,1.7,29.5,2,44.3c0.7-7.3,1.4-14.6,2.4-21.9
	c0.4,14.1,0.2,28.2,2,42.3c0.5-20.9,1-41.7,2-62.6c0.5,15.4,0.4,30.9,0.9,46.4c0.3-8.7,0.8-17.4,1.1-26.1c0.2,4,0.7,12.1,1,16.1
	c0.4-2.7,0.8-5.3,1.2-7.9c0.5,6.9,1,13.7,1.7,20.5c1.3-6.5,1.7-13,2.4-19.5c0.4,3.3,0.6,6.6,1,9.9c0.3-6,0.5-12,0.8-18
	c0.4,7,0.8,14,1.3,21.1c0.3-11.8,0.4-23.5,0.8-35.3c0.2,3.1,0.3,6.2,0.5,9.4c0.7-0.6,1.4-1.2,2-1.7c0.1,9.9,0.2,19.8,1.3,29.6
	c0.6-11.1,0.9-22.3,1.6-33.4c1.2,8.7,1.3,17.5,1.8,26.3c0.3-15.1,0.7-30.3,1.9-45.4c0.8,5,1.5,9.9,2.2,14.9c0.1-2,0.1-5.8,0.2-7.8
	c0.4,0.8,1.1,2.4,1.5,3.2c1.3-4.1,2.7-8.3,4-12.4c2.3,13.3,1.6,26.9,2.2,40.4c0.9-6,1.5-12,2.2-18.1c0.3,6.4,0.5,12.7,0.9,19.1
	c1.6-16.5,1.2-33.1,3.8-49.5c1.5,7.3,2.3,14.8,3.3,22.2c2-7.3,3.3-14.8,4.8-22.2c0.6,10.8,0.9,21.6,2,32.3c2-14.8,3.9-29.5,4.3-44.4
	c1.4,8.5,1.8,17.2,2.5,25.8c0.6-0.1,1.8-0.1,2.4-0.2c0.7-4.6,1.3-9.3,2.3-13.8c3.6,12.8,1.7,26.1,3.5,39.1
	c0.9,7.6,1.9,15.1,2.4,22.7c0.2-12.1,0.4-24.2,0.9-36.2c0.5,17.2,0.6,34.3,2,51.4c0.8-20.5-0.2-41.1,1.1-61.6
	c2,13,1.2,26.2,1.9,39.4c1-7.3,1.5-14.7,2.2-22.1c0.4,20.5-0.2,41,0.8,61.5c0.9-23.2-0.2-46.4,0.8-69.6c1.6,26.2,1.2,52.5,2.2,78.7
	c1.2-34.7-0.4-69.3,0.8-104c2.8,36.3,0.6,72.7,2.2,109c1.2-37-0.5-74.1,0.9-111.1c1,26.2,1.2,52.5,2.1,78.8
	c1-20.5-0.7-41.1,1.8-61.6c1.7,34.3-0.5,68.7,1.3,103c1.5-29.3-1.5-58.7,1.7-87.9c1.3,24.4,0.4,48.8,0.6,73.2l1.1,0
	c-0.5-33.5,0.5-67,1.6-100.5c0.9,39.6,0.1,79.1,0.3,118.7l1,0c0.5-33.2,0.9-66.3,1.7-99.5c1.1,28.3-0.4,56.6,0.9,84.8
	c3.8-41.6-0.2-83.5,2.2-125.2c1.2,40.1-0.6,80.1,0.9,120.2c2.8-35.6,0.4-71.4,2-107c1.3,34.3-0.6,68.7,1.1,103
	c1.7-9.8,1.4-19.9,1.5-29.8c-0.1-21.9-0.2-43.8-0.1-65.7l1,0c-0.1,14.6-0.4,29.3,1.4,43.9c1.1-19.2,0.3-38.4,1.3-57.5
	c1.4,31.3-0.8,62.7,1.3,94.1c2.6-27.6,0.1-55.3,1.7-82.9c0.6,16.8,0.4,33.7,2.2,50.5c0.5-17.5,0.2-35,0.9-52.5
	c0.7,16.8,1.2,33.6,2.1,50.4c0.7-18.8,0.2-37.7,0.9-56.5c0.8,8.4,1.4,16.8,2.2,25.2c0.3-8.7,0.6-17.4,0.9-26.1
	c0.9,12.8,1.5,25.5,2.2,38.3c0.3-9.7,0.5-19.5,0.8-29.2c0.6,11.4,1.1,22.8,2.1,34.1c0.3-5.6,0.6-11.3,0.9-16.9
	c0.4,4,1.2,12.1,1.6,16.2c1.1-11.8,1.1-23.6,1.6-35.4c0.4,10.4,0.6,20.9,1.8,31.3c0.4-6.3,0.7-12.7,1-19c0.6,4.6,1.3,9.3,2,13.9
	c0.8-2.3,1.7-4.5,2.5-6.8c0.4,7,0.8,14,1.4,20.9c0.2-2.5,0.5-7.6,0.7-10.2c0.6,0.4,1.3,0.8,1.9,1.2c0.4-1.3,0.7-2.5,1.1-3.8
	c0.2,6,0.5,11.9,0.7,17.9c0.8-8.1,1.4-16.1,2.1-24.2c0.6,3.9,1,7.8,1.5,11.7c0.7-1.1,1.4-2.2,2.1-3.3c0.6,4.9,0.8,9.8,1.3,14.7
	c0.5-2.7,1.1-5.4,1.6-8.1c0.7,3,1.1,6,1.8,9c0.1-5,0.1-9.9,0.2-14.9c0.6,1.6,1.1,3.1,1.7,4.7c0.7-6.6,1.2-13.3,1.9-19.9
	c0.4,5,0.7,10,1.1,15c1-6.3,1.4-12.6,2-19c0.3,7,0.5,14.1,0.9,21.1c0.7-11.4,1.3-22.9,1.9-34.3c0.6,5,1.2,10,1.9,15
	c0.6-4.4,1.1-8.7,1.7-13.1c0.9,7,1.1,14.1,1.7,21.2c0.3-7.4,0.5-14.7,0.8-22.1c1,8,1.7,16,2.3,24.1c0.3-8,0.4-16.1,0.7-24.1
	c0.8,7.3,1.6,14.7,2.3,22c0.2-10.4,0.4-20.8,0.8-31.1c0.9,8.4,1.6,16.7,2.2,25.1c0.3-9.1,0.5-18.1,0.8-27.2
	c0.6,6.7,1.1,13.4,1.9,20.1c0.5-7.4,0.8-14.8,1.3-22.1c0.7,8.4,1.3,16.7,2.2,25c0.3-8,0.5-16,0.8-24c0.7,8,1.3,16,2.1,24
	c0.3-7.3,0.6-14.7,0.9-22c0.7,7.3,1.3,14.7,2,22c0.4-5.3,0.8-10.7,1.3-16c0.8,6,1.2,11.9,1.7,17.9c0.5-2.7,1.4-5.2,2.1-7.9
	c0.1,2.7,0.4,8.2,0.5,11c0.6-1.6,1.3-3.1,1.9-4.7c-0.1,2.8-0.2,8.4-0.2,11.2c0.8-0.6,1.6-1.1,2.4-1.7c0.1,2.8,0.3,5.6,0.4,8.4
	c0.5-4.5,1.1-9,1.7-13.4c0.5,4.4,0.7,8.7,1,13.1c0.6-1.1,1.3-2.3,1.9-3.4c-0.3,21.8,0.3,43.6,1.6,65.3c0.5-17.1,0.2-34.3,1.1-51.4
	c0.8,20.2-0.1,40.4,0.8,60.5c1.3-22.9,1.3-45.8,2.2-68.6c0.9,38.2,0.1,76.4,0.3,114.6l1,0c-0.1-29.3,1.6-58.5,1-87.8l1.1,0
	c0.3,30.5-0.7,61,0.5,91.4c0.7-30,0.4-59.9,2.1-89.9c0.9,32.5,0.1,65,0.3,97.5l1.1,0c-0.1-17-0.2-34,0.4-51c0.5,4.7,0.8,9.3,1.2,14
	c0.5-8.4,0.8-16.8,1.5-25.1c0.7,7,1.4,14.1,2.2,21.1c0.5-5.3,1-10.7,1.4-16c0.4,13.6,0.4,27.2,0.3,40.8h1
	c-0.1-22.7,0.7-45.5,1.7-68.2c0.4,14.1,0.4,28.3,0.9,42.4c3-25.2,0.5-50.5,2-75.8c1,25.7,0.2,51.5,0.4,77.3l1.1,0
	c-0.3-30.5,0.6-60.9,1.6-91.4c1,24.6-0.3,49.2,1,73.7c0.6-31.6,0.4-63.3,1.9-94.9c0.5,13.8,0.6,27.5,0.9,41.3
	c0.9-12.1,1.6-24.2,2.2-36.2c0.4,7.7,0.8,15.5,1.3,23.3c1.3-9,1-18.1,1.4-27.2c0.3,1.4,0.9,4.3,1.2,5.8c0.5-2.3,1-4.5,1.6-6.8
	c0.7,7.3,1.1,14.7,1.6,22c0.8-8,1.4-16.1,2.1-24.1c0.3,6.7,0.5,13.4,0.8,20.1c0.6-7,1-14,1.9-21c0.2,1.6,0.6,4.9,0.8,6.5
	c0.9-1.9,1.8-3.7,2.7-5.6c0.2,7.7,0.4,15.4,0.7,23.1c1.9-10.3,3.6-20.7,4.3-31.2c0.6,7.1,1.1,14.1,1.8,21.2c1.1-2.7,1.8-5.5,3-8.1
	c1.4,6.3,1.6,12.7,2.1,19.1c0.3-2.7,0.8-8.2,1.1-10.9c0.2,4.3,0.4,8.7,0.6,13c0.4-1.6,0.8-3.2,1.2-4.7c0.8,2.9,1.5,5.8,2.4,8.7
	c0.1-4.6,0.2-9.2,0.3-13.8c1.2,4.9,2.6,9.8,5.2,14.1c1.1-3.2,1.7-6.6,2.5-9.9c0.5,5.2,1.1,10.4,1.8,15.6c0.3-5.6,0.7-11.3,1-16.9
	c0.4,10.4,0.6,20.8,1,31.2c0.8-9,1.4-18.1,2-27.2c0.4,4,1.1,12.1,1.5,16.1c0.9-6.7,1.3-13.5,1.9-20.2c1.2,13.1,1.2,26.2,1.8,39.3
	c0.3-13.1,0.4-26.2,0.8-39.4c0.3,3,0.2,5.8,0.6,8.8c0.7-1.2,1.4-2.3,2.1-3.5c0.2,31.2-0.8,62.5,0.6,93.7
	c1.4-35.8-1.4-71.8,2.5-107.5c0.7,7.7,0.9,15.4,1,23.2c-0.3,38.7-0.1,77.4-0.2,116.2h1.1c0.2-45.6-0.6-91.2,0.4-136.8
	c0.4,8.7,0.8,17.4,1.2,26.2c0.4-9.4,0.6-18.8,1.1-28.2c0.8,23.2-0.4,46.5,1,69.7c0.5-13.4,0.3-26.9,0.5-40.3
	c0.5,2.2,1.1,4.5,1.7,6.8c0.1-10.4,0.2-20.7,0.6-31.1c0.3,8.8,0.7,17.5,1.1,26.3c2.2-5.8,2.6-12,3.4-18.1c0.2,25.7,0,51.4,0,77.1
	h1.1c0.1-20.2-0.1-40.4-0.1-60.6c0.1-11.6-0.1-23.4,2.9-34.7c0.4,19.8-0.1,39.6,0.6,59.4c0.8-17.8,2.4-35.6,3.4-53.5
	c1.4,10.7,1.4,21.5,1.8,32.2c0.4-8.8,1-17.5,1.6-26.3c0.8,8.1,1.1,16.2,1.6,24.3c0.6-10.8,1.2-21.5,2.8-32.2
	c0.6,10,0.9,20.1,2.4,30.1c0.6-12.7-0.3-25.7,2.8-38.2c0.6,13.8,0.6,27.5,1,41.3c0.6-13.1,1.1-26.2,2.2-39.3
	c0.3,6.3,0.5,12.7,0.7,19.1c0.3-2.7,0.8-8.2,1.1-10.9c0.3,1.7,1,5.1,1.3,6.8c0.4-5,0.6-10,1-15c1.2,13.4,1.4,26.9,1.8,40.3
	c0.4-13.2,0.6-26.4,2.7-39.4c0.6,10.5,1,20.9,1.4,31.4c0.6-10.2,0.9-20.5,4-30.3c0.4,5.7,0.7,11.4,1.1,17.2c0.4-6,0.8-12.1,1.3-18.1
	c0.9,9,1.3,18.1,1.9,27.2c0.3-10.8,0.4-21.5,0.8-32.2c0.4,3.3,0.7,6.6,1.2,10c0.4-3.3,0.6-6.7,1.1-9.9c0.2,13.7,0.3,27.5,0.7,41.3
	c0.7-18.5,1.7-37,3.2-55.4c0.6,11.8,1.2,23.5,2.1,35.2c1-8,1.5-16.1,1.8-24.1c0.3,1.7,0.9,5.2,1.2,6.9c0.4-2.6,0.7-5.3,1.1-7.9
	c0.4,3.3,0.5,6.6,0.9,10c0.5-3,0.6-6.1,1.2-9c0.2,7.4,0.4,14.7,0.6,22.1c0.9-6.4,1.3-13,3.4-19.2c1.6,7.6,1.3,15.4,1.6,23.2
	c0.8-7.4,0.8-15.1,3.4-22.2c0.6,1.5,1.7,4.5,2.3,6c0-4.6,0-9.2,0.1-13.7c1,4.3,2.1,8.6,3.3,12.9c0.5-3,1.5-9.1,2-12.2
	c0.8,8.4,1,16.8,1.4,25.3c0.4-10.4,0.5-21,2.8-31.2c0.4,7.7,0.8,15.4,1.1,23.2c1.1-8,2.3-16,3.2-24c0.4,5.7,0.8,11.5,1.3,17.2
	c1.3-4,2.2-8.1,3.1-12.2c-0.1,2.4-0.2,4.8-0.3,7.2c0.8-0.6,1.6-1.2,2.4-1.8c0.2,1.8,0.5,5.5,0.6,7.4c0.3-5,0.4-10,0.7-15
	c0.6,3.4,1.1,6.8,1.7,10.2c1.3-3.6,2.2-7.4,3.1-11.1c-0.1,5.2-0.2,10.3-0.3,15.5c0.5-1,1-1.9,1.5-2.8c0.6,0.9,1.2,1.8,1.8,2.7
	c0.1-4.8,0.1-9.7,0.2-14.5c0.2,1.5,0.5,4.6,0.6,6.1c0.7-0.5,1.4-1,2.1-1.5c0.1,2.7,0.3,5.5,0.5,8.3c0.3-5.3,0.6-10.6,1-15.9
	c0.5,5.4,1,10.9,1.5,16.3c1.3-3.3,2.2-6.7,3.2-10c-0.1,16.1,0.4,32.2,2.2,48.2c0.7-12.1,0.9-24.2,1.2-36.4
	c2.5,18.1,2.7,36.3,3.2,54.5c0.4-12.3,0.4-24.5,0.5-36.8l1-0.1c0.1,22-0.1,44,0,66c0.5-1.4,1.5-4.2,2-5.6c0,14.1-0.1,28.1,0.6,42.1
	c2.4-27.5,0.8-55.2,1.9-82.8c1.1,14.8,1.7,29.6,2.1,44.4c0.4-5.7,0.8-11.4,1.3-17.1c0.3,16.5,0.1,33,0.8,49.4
	c0.6-20.2,1.1-40.4,1.8-60.6c0.4,4,0.8,8,1.3,12c0.3-10.4,0.6-20.8,0.9-31.2c2.1,25.4,1.3,50.8,1.4,76.2l1.1,0
	c0.5-24.7-1.9-49.7,2.3-74.2c0.5,7.7,0.9,15.4,1.3,23.2c0.5-10.8,1-21.5,2.1-32.3c0.4,16.8,0.1,33.7,0.9,50.5
	c0.6-17.8,0.2-35.7,1-53.5c0.4,8.4,0.6,16.8,0.9,25.2c0.7-7.3,1.5-14.6,2.5-21.9c0.7,1.1,1.3,2.2,2,3.4c0.2-10,0.5-19.9,1.8-29.8
	c0.8,23.5-0.4,47,0.9,70.5c1-26.9-0.3-53.9,0.8-80.8c0.6,7.7,1.1,15.5,1.9,23.2c0.5-4,1.1-8.1,1.7-12.1c0.9,7,1.2,14.1,1.7,21.1
	c0.3-5.7,0.5-11.3,0.8-17c0.8,8.7,1.5,17.4,2.2,26c0.2-13.1,0.1-26.2,1.8-39.3c0.5,9.7,0.6,19.4,0.9,29.1c3.5-9.9,3.6-20.5,4.2-30.9
	c0.2,1.1,0.4,2.3,0.6,3.5c1.4,0.2,2.8,0.4,4.2,0.6c0,1.6,0,4.9,0,6.6c1.3-5.1,2.6-10.1,4.3-15.1c0.9,3.6,1.6,7.3,2.4,11
	c0.1-1.7,0.3-5,0.3-6.6c0.6,1.6,1.1,3.1,1.7,4.7c0.2-1.7,0.6-5.1,0.8-6.8c0.2,2.6,0.5,5.2,0.7,7.9c0.3-1.4,0.7-4.2,1-5.6
	c0.4,1.4,1.2,4.1,1.6,5.5c0.2-4.3,0.4-8.5,0.6-12.8c0.4,4,0.8,8,1.2,12c0.3-3.3,0.4-6.7,0.8-10c2.3,11,3.9,22,4.3,33.2
	c0-8.7,0.6-17.4,0.7-26.1c0.7,13.8,1.9,27.6,3.3,41.3c0.3-9.1,0.6-18.2,1.2-27.3c2,17.1,0.9,34.4,1.6,51.6
	c0.7-9.1,1.3-18.1,2.1-27.2c0.7,7,1.3,14,2,21c0.6-7.4,1.2-14.7,2.2-22.1c0.6,15.6,0,31.3,2.5,46.8c2-12.1,2-24.4,2.2-36.7
	c0.3,2.7,1,8.2,1.4,10.9c0.4-4.7,0.7-9.3,1.1-14c0.3,16,0.3,31.9,0.2,47.9l1.1,0c0-20.4-0.3-40.7,0.3-61.1
	c0.9,12.4,2.4,24.8,3.3,37.2c0.1-17.9,2-35.6,3.2-53.4c0.3,12.3,0.5,24.7,1.2,37c0.6-1.1,1.2-2.1,1.9-3.2c0.4,1.4,0.7,2.9,1.1,4.3
	c0.1-8,0.4-16,0.6-23.9c0.3,8.7,0.8,17.4,1.2,26.2c1.4-14.4,1.5-28.9,2-43.4c0.5,10.8,0.8,21.6,2.2,32.3c1.9-15.1,1.1-30.3,1.9-45.5
	c0.3,8.1,0.7,16.1,1,24.2c0.2-8.7,0.8-17.4,1-26.2c0.8,20.5,0,41.1,1,61.6c2.2-19.6,1.4-39.4,1.4-59.1l1-0.1
	c0,18.4-0.1,36.9,2.7,55.1c0.6-15.8,0.4-31.7,2-47.4c2.6,16.9,0.6,34,2.7,50.9c2.2-23.3-0.1-46.8,1.3-70.1
	c0.4,8.7,0.8,17.4,1.2,26.2c0.4-6.4,0.7-12.8,1.2-19.1c0.3,16.1,0.1,32.3,0.9,48.4c1.9-15.3,1-30.9,2.9-46.2
	c2.4,22.1,0.8,44.3,2,66.5c0.9-22.5,0-45.1,0.9-67.6c0.4,4.7,0.7,9.3,1.1,14c0.3-7,0.7-14,1.1-21c1.1,21.1-1,42.4,2.1,63.4
	c0.7-17.6-0.2-35.3,2.6-52.8c1.2,16.3,0.6,32.6,1.4,48.9c0.5-14.4,0.4-28.9,0.6-43.3c0.5,2.2,1.1,4.4,1.7,6.7
	c0.2-5.6,0.5-11.3,0.8-16.9c0.5,22.5,0.6,45.1,2,67.6c0.5-23.6,0.1-47.2,3.2-70.6c0.6,22.5-0.3,45.1,0.8,67.6
	c0.6-24.6,1.9-49.1,3-73.7c1.2,21.2,1.2,42.4,2,63.6c0.8-19.6-0.3-39.4,1.3-59c4,16.3,1.4,33.3,2.7,49.9c2.1-17.8,0.8-35.8,2.8-53.6
	c1.4,17.8,1.6,35.7,2.2,53.5c0.9-17.5,1.2-35.1,2.8-52.5c0.9,17.2,0.4,34.5,1.7,51.8c2.3-18.5,1.7-37.1,2.5-55.7
	c0.7,17.8,1.2,35.6,2,53.4c0.6-18.1,0.9-36.3,2-54.4c0.3,12.2,0.5,24.5,1.6,36.7c1.3-11.2,1.5-22.6,3.4-33.7
	c0.5,10.8,0.6,21.5,1,32.3c0.8-9.4,1.8-18.7,3.1-28c0.5,7.3,1,14.6,1.7,21.9c0.7-9.1,1.4-18.2,3.2-27.2c0.7,8.7,1.1,17.4,2.3,26
	c0.3-8.3,0.4-16.6,0.6-25c1.1,5.3,2.3,10.6,3.4,15.9c0.6-6.6,1.2-13.2,1.9-19.8c0.7,9,1.3,18.1,3.2,26.9c0.3-8.7,0.5-17.4,0.7-26.1
	c0.7,4.7,1.2,9.3,2,14c1.5-3.4,2.7-7,3.9-10.6c-0.2,11.6-0.2,23.3,0.2,34.9c0.6-3,0.8-6.1,1.6-9c0.1,16.5,0,32.9,0.6,49.4
	c0.8-14.1,2.1-28.2,3.3-42.4c0.7,21.1-0.9,42.4,1.7,63.5c0.4-4.6,0.8-9.3,1.3-13.9c0.2,8.4,0.4,16.7,0.7,25.1
	c0.4-7,0.8-14.1,1.2-21.1c0.9,16.2,1.1,32.4,2.9,48.5c1.4-27.9-0.4-55.9,1.2-83.9c1.1,26.9-0.5,53.9,0.9,80.8
	c0.7-19.2,0.1-38.4,1.1-57.6c0.9,19.9-1,40,2.7,59.7c0.5-4.4,0.9-8.8,1.5-13.1c0.2,12.7,0.2,25.5,0.7,38.2c3.4-33.9,0.2-68,2.1-102
	c0.6,17.5,0.2,35,1.1,52.5c0.5-16.8,0.1-33.7,1-50.5c0.9,36.9,0.1,73.7,0.3,110.6l1.1,0c-0.1-18.6-0.3-37.3,0.6-55.9
	c0.5-16.6-0.2-33.2,1.7-49.7c1.3,19.2-0.4,38.5,2.1,57.6c1.6-30-0.2-60,1.1-89.9c3.4,20,1.6,40.4,4.3,60.4
	c0.4-16.1,0.2-32.2,0.9-48.3c1.8,14.8,1.3,29.7,2,44.5c2.5-18.4,0.6-37.1,3-55.6c0.5,6.4,0.8,12.9,1.3,19.3c1.9-5.9,2.3-12.1,3-18.2
	c0.2,4,0.4,7.9,0.7,11.9c0.8-9.1,1.9-18.2,3.5-27.2c0.8,6.7,1.1,13.4,1.6,20.1c0.7-8,1.5-16,2.8-24c0.3,2,0.8,5.9,1.1,7.8
	c0.7-3.6,1.4-7.2,2.2-10.8c0.1,2.6,0.2,5.3,0.4,7.9c0.9-0.4,1.8-0.7,2.8-1.1c0.4,1.3,0.8,2.5,1.3,3.8c1-3.1,1.8-6.4,2.7-9.6
	c0.6,3.9,1.1,7.8,1.8,11.7c0.3-5.7,0.7-11.3,1-17c0.4,5.3,0.8,10.7,1.2,16c0.3-4.7,0.5-9.4,0.8-14.1c0.6,3.1,0.7,5.9,1.5,9.1
	c0.7-2.9,0.9-6,1.7-8.9c1.1,3.2,2,6.5,3.1,9.7c0.6-2.9,0.6-6,1.5-8.9c1.8,7.6,2.8,15.4,3.7,23.1c0.3-4,0.6-8,1-12
	c0,7.1,0.1,14.2,0.1,21.2c0.8-0.4,1.6-0.8,2.4-1.3c0.7,7.1,1.1,14.2,1.6,21.3c0.2-14.8,0.2-29.6,0.9-44.4c1,20.8-0.8,41.8,1.8,62.5
	c0.4-6,0.8-12,1.2-18.1c0.5,3.3,0.7,6.6,1.2,10c0.3-7.7,0.6-15.4,0.9-23.1c0.3,11.4,0.5,22.9,1,34.3c0.4-9.7,0.6-19.5,1-29.2
	c0.4,14.1,0.4,28.3,0.7,42.4c0.5-2.7,1.1-5.3,1.6-8c0.2,14.6,0.1,29.2,0.1,43.8l1.1,0c0.2-28.8-0.6-57.6,0.5-86.3c0.4,5,0.6,10,1,15
	c0.4-7,0.8-14.1,1.2-21.1c0.4,18.5-0.1,37,0.8,55.5c0.7-17.8,1.2-35.7,1.9-53.5c0.8,7,1.5,14,2.2,21c0.3-4.3,0.6-8.6,1-12.9
	c0.4,7.7,0.7,15.4,1.1,23.2c0.5-18.5-0.1-37,0.9-55.5c1.2,30-0.6,59.9,1,89.9c1-25.2-0.4-50.5,1-75.7c0.2,4.8,0.2,9.6,0.3,14.4
	c0.7-0.6,1.4-1.1,2.2-1.7c0.1,7.5,0.3,15,0.5,22.6c0.3-10.2,0.5-20.4,2.1-30.6c1.8,8.7,1.5,17.7,2.1,26.5c0.8-16.5,1.9-33,3.1-49.4
	c0.4,12.4,0.2,24.9,2,37.1c0.4-15.1,0.5-30.2,2-45.3c0.6,19.5,0.1,39.1,0.7,58.6c1.7-18.5,2.7-37,3.3-55.5c0.4,16.5,0.2,33,0.9,49.5
	c0.4-11.5,0.5-23,1.3-34.5c2.1,10.7,2.3,21.6,2.8,32.4c1.8-18.1,1.6-36.3,3.1-54.5c0.7,21.2-0.2,42.4,0.9,63.6
	c3.2-22.7-0.1-45.8,3.2-68.5c0.5,19.2-0.1,38.3,1,57.5c3.2-16.3,2.1-33.1,2.9-49.6c0.8,18.4-0.4,37,2.1,55.4
	c0.5-16.1-0.2-32.4,1.9-48.4c1.2,16.5,1.4,33,2.2,49.6c0.4-16.8-0.2-33.7,1.6-50.4c1.4,13.7,1.9,27.5,2.3,41.3
	c0.4-13.8,0.5-27.6,1.1-41.4c3.2,13.2,2.4,27,3,40.5c0.4-14.2,0.4-28.4,2.9-42.4c0.5,10.1,0.6,20.2,1.1,30.2
	c1-14.1,2.1-28.2,3.1-42.3c0.3,10.4,0.6,20.8,1.1,31.2c0.2-5,0.2-9.9,0.4-14.9c0.6,1.2,1.3,2.4,1.9,3.5c0.3-3.2,0.4-6.6,0.8-9.8
	c0.3,11.8,0.3,23.5,0.6,35.2c0.6-15.1,1.6-30.3,3.4-45.3c0.3,10.1,0.4,20.2,0.9,30.3c2.1-11.3,2.1-22.9,3.1-34.4
	c0.3,14.5,0.3,28.9,0.8,43.4c1.3-14.4,2.6-28.9,3.3-43.4c0.2,14.5,0.2,28.9,0.9,43.4c2.4-11.9,2.5-24.2,3-36.3
	c0.4,7.4,0.8,14.8,1.3,22.2c1.2-6.7,2.1-13.4,3-20.1c0.2,7.7,0.5,15.5,0.9,23.2c1.1-6.1,2-12.3,3.4-18.3c0.3,3,0.9,9,1.3,12
	c0.9-5.7,2-11.3,3-17c0.8,4.3,1.5,8.7,2.4,13.1c0.8-5,1.3-10,2-15c0.2,6.7,0.4,13.3,0.7,20c1.1-5.6,2-11.3,3.1-16.9
	c0.4,4.6,0.6,9.3,1.1,13.9c1.1-7,2.3-13.9,3.3-20.9c0.1,14.7,0.3,29.4,1.8,44c0.4-14.4,0.9-28.8,2-43.2c0.5,21.2,0.3,42.4,2,63.5
	c1.3-13.7,1.5-27.5,2-41.3c1.2,11.4,1.6,22.8,2.2,34.2c1-10.7,1.4-21.5,2-32.2c1.2,31.5-1.2,63,1.4,94.4c3-25.3,2.6-50.8,3.6-76.2
	c0.6,14.5,1.2,28.9,2,43.4c0.5-8,0.9-16.1,1.9-24.1c1.2,14.8,1.6,29.6,2.2,44.3c0.8-27.9,1.1-55.9,2.1-83.8
	c0.7,19.5-0.5,39.2,2,58.6c0.4-12.1,0.4-24.2,2.1-36.2c0.7,16.4,1.3,32.8,1.8,49.3c1.4-29.3,1.2-58.6,2.2-87.8
	c0.7,19.5,0,39,0.9,58.5c1.7-10.1,1.1-20.6,3.7-30.5c1.2,9.5,1.8,19,2.6,28.5c0.3-15.1,0.2-30.3,0.8-45.4
	c0.3,10.7,0.5,21.4,0.7,32.1c0.5-2.9,1.5-5.7,2.1-8.5c0.5,1.5,1,3,1.6,4.4c0.1-7.6,0.2-15.3,0.3-22.9c0.7,5.3,1.5,10.7,2.3,16
	c3.3-8.7,6.1-17.7,6.2-27.1c0.6,5.7,1.3,11.4,2.2,17.1c0.8-5,1.3-10.1,2-15.1c0.5,3.9,0.9,7.8,1.4,11.8c0.9-4.2,1.9-8.4,2.9-12.6
	c0.6,1.5,1.2,3.1,1.9,4.6c0-1.6-0.1-4.8-0.1-6.5c1.9,2.3,3.9,4.6,6,6.7c0.3-3.3,0.3-6.7,0.7-10.1c0.6,3.2,1.2,6.4,1.8,9.6
	c1.1-3.3,2.2-6.6,3.4-9.8c0.7,4.4,1.4,8.7,2.1,13.1c0.2-2.7,0.7-8.2,1-11c0.2,5.7,0.4,11.4,0.7,17.1c0.4-1.7,1.1-5.1,1.5-6.8
	c0.6,7.3,1.1,14.6,1.7,22c0.3-2.7,1-8.2,1.3-10.9c0.9,10.7,1.3,21.5,1.9,32.2c0.2-11.1,0.4-22.2,0.8-33.2
	c1.5,18.1,1.5,36.3,2.2,54.5c0.4-15.1,0.2-30.3,1-45.4c0.5,16.8-0.2,33.7,1.6,50.5c0.7-7.1,1.3-14.1,2.1-21.1
	c0.4,7.3,0.9,14.7,1.3,22.1c0.4-15.5,0.3-30.9,1-46.4c1.2,29.6-0.5,59.3,1.1,88.9c0.4-30,0.5-59.9,2-89.9c1.1,32-0.7,64,1,95.9
	c0.4-27.9,0.9-55.9,2-83.8c1.3,37.7-0.6,75.4,1,113.1c1.9-43.1,0.8-86.2,2.1-129.3c1.1,38.7-0.4,77.4,0.7,116.1
	c0.9-9.5,1.8-19.1,1.7-28.7c0.1-30.3-0.1-60.6-0.1-90.9h1.1c0.3,49-0.8,98,0.6,147c2.5-41.4,0.5-82.8,2.1-124.2
	c1.3,40.4-0.8,80.9,1.1,121.3c3.3-43.4-0.3-86.9,1.9-130.4c1.7,38.4-1.7,77,1.9,115.2c1.5-31.7-0.5-63.4,1.2-95c0.7,33,0,66,2,99
	c1.2-37.7-0.5-75.4,0.8-113.1c0.6,13.5,0.5,27,2.2,40.4c0.4-14.5,0.3-29,1-43.5c0.2,30.5,1.4,60.9,1.4,91.4l1,0
	c0.2-32.2-0.6-64.3,0.5-96.5c0.7,10.8,1.4,21.5,2.3,32.3c0.3-15.1,0.1-30.2,0.7-45.3c1.5,23.9,1.3,47.8,2.2,71.6
	c0.6-17.5,0.3-35,0.9-52.5c0.3,6,0.5,12,0.9,18.1c0.6-7.4,1.2-14.8,2-22.1c1,9.1,1.8,18.1,2.4,27.2c0.3-9.4,0.5-18.8,1-28.2
	c0.4,11.8,0.4,23.5,1,35.3c0.5-17.5-0.1-35,1.8-52.4c0.5,11,0.7,22.1,2.2,33.1c0.3-7.7,0.6-15.3,1-23c0.3,9.1,0.6,18.1,1,27.2
	c0.5-9.1,0.8-18.1,1.6-27.2c0.9,5,1.7,10,2.5,15c0.5-3,0.3-6.1,1.1-8.9c0.3,4.3,0.6,8.6,1,13c0.5-11.1,1.1-22.2,2-33.2
	c0.4,8.4,0.7,16.9,1.2,25.3c0.8-3.6,1.2-7.4,1.9-11c0.6,3,0.6,5.8,1.5,8.9c0.6-6.4,1-12.7,1.5-19.1c0.3,11.1,0.5,22.1,1.5,33.1
	c0.5-4,1-7.9,1.5-11.9c0.5,9.7,0.7,19.4,2.2,29c0.3-13.4,0.3-26.8,0.8-40.2c0.4,9.6,0.7,19.1,1.5,28.7c0.7-4.8,1.1-9.6,1.7-14.4
	c0.3,4.7,0.5,9.3,0.9,14c0.8-6.7,1.5-13.4,2.1-20.1c1.2,9,1.4,18.1,1.9,27.1c0.4-8.4,0.7-16.8,1.3-25.1c7,7.6,3.3,18.7,4.1,28
	c1.1-6.5,2.9-12.8,5.9-18.7c0.2,4.3,0.5,8.6,0.8,12.9c0.6-8.4,1.2-16.8,1.9-25.1c0.3,8.7,0.6,17.4,1,26.1c0.9-9.1,1.6-18.1,2.2-27.2
	c0.3,9.7,0.5,19.5,1,29.2c1-10.4,1.4-20.8,2-31.2c0.8,8.4,1.3,16.8,2,25.2c0.4-6,0.7-12.1,1.1-18.1c0.8,6,1.3,12,1.9,18
	c0.3-4,0.8-12.1,1.1-16.1c1.9,11.3,1.3,22.9,1.9,34.4c0.4-10.8,0.5-21.6,1.7-32.3c0.8,7,1.4,14,2.4,21c0.4-5,0.7-9.9,1.1-14.9
	c0.8,5.6,1.5,11.2,2.2,16.9c0.1-14.4,0.1-28.8,0.6-43.2c1.6,15.3,1.7,30.6,1.6,46c0.5,0,1.4-0.1,1.8-0.1c0.2-8.9,0.4-17.8,0.8-26.7
	c0.4,14.4,0.4,28.9,0.7,43.3c1.5-10.7,2.1-21.5,3.2-32.2c0.9,8.1,1.5,16.1,2.2,24.2c0.2-14.5,0.2-29,0.9-43.4
	c0.7,19.9,0,39.7,0.9,59.6c0.5-12.8,0.7-25.7,3-38.3c1.5,38.4-0.6,76.8,1.1,115.1c0.6-22.7,1-45.4,1.8-68.1c0.2-8.3,2-16.4,3.5-24.6
	c0.2,12.7,0.2,25.4,1.8,38c0.6-18.8,0.1-37.7,0.9-56.5c0.4,8.1,0.7,16.1,1.1,24.2c0.1-5.8,0.1-11.6,0.2-17.4
	c0.7,0.5,1.5,1.1,2.3,1.6c0.4-9.5,0.9-19.1,1.5-28.6c0.4,11.4,0.5,22.8,2.1,34.1c0.4-8,0.6-16,1-24c0.1,5.6,0.2,11.2,0.4,16.9
	c0.7-1.2,1.4-2.3,2.1-3.5c0.2,4.3,0.4,8.5,0.7,12.8c0.2-9.7,0.4-19.5,0.7-29.2c0.6,11.4,1.1,23,3.1,34.3c0.7-15.1-0.3-30.5,2.9-45.4
	c1.4,12.7,1.1,25.8,4.2,38.3c0.5-9.7,0.9-19.4,2.1-29c0.3,9,0.6,18.1,0.9,27.1c0.9-2.6,1.2-5.4,2.3-8c0.7,5.6,1.4,11.2,2.1,16.8
	c0.3-10.7,0.4-21.4,1.8-31.9c0.3,7.7,0.6,15.5,1.2,23.3c3-8.4,2.1-17.6,2.7-26.3c0.5,5.7,1.2,11.4,1.9,17.1
	c0.6-10.4,0.9-20.9,1.4-31.3c0.3,10.1,0.5,20.2,0.9,30.2c0.3-9,0.4-18.1,0.6-27.1c1.1,4.3,2.1,8.7,3.5,12.9
	c0.3-5.7,0.7-11.4,1.1-17.1c1.4,21.2,1.2,42.4,1.9,63.6c0.5-15.1,0.6-30.1,1.4-45.1c0.7,1.1,1.4,2.3,2.1,3.4
	c0.2-2.5,0.4-5.1,0.6-7.6c0.4,7.2,0.9,14.3,1.5,21.5c0.9-9.2,1.1-18.4,1.6-27.6c0.3,8.4,0.7,16.9,1.3,25.3
	c0.7-7.8,1.2-15.5,1.8-23.3c0.3,12.5,0.4,25,1.9,37.4c0.4-13.1,0.4-26.3,1.7-39.4c0.8,7.7,1.6,15.4,2.3,23.1c0.3-4,0.8-12,1.1-16
	c1.1,28.9,1,57.9,2,86.8c0.8-19.9-0.4-39.9,1.4-59.8c2.4,24.9-0.1,50,1.6,74.9c1-24.9-0.3-49.8,0.9-74.7c0.4,10.8,0.7,21.5,1.2,32.3
	c0.4-15.1,0.2-30.3,0.8-45.4c1.1,11.4,1.5,22.8,2,34.3c0.4-7.1,0.7-14.1,1.2-21.1c0.5,11.8,1.1,23.6,2.4,35.4
	c1.2-13.2,1.1-26.4,1.8-39.6c2.3,17.4,0.8,35.1,1.8,52.6c0.7-17.2-0.4-34.4,1.9-51.5c0.4,6.6,0.4,13.3,0.6,20
	c1.1-4.7,2.2-9.4,3.5-14c0.5,6.7,0.7,13.5,1.1,20.2c0.3-9.7,0.5-19.5,1-29.2c0.4,13.4,0.3,26.9,0.9,40.4c0.4-10.8,0.6-21.5,0.9-32.3
	c0.5,3.3,0.7,6.6,1.3,10c0.1-4,0.2-7.9,0.4-11.9c0.6,1.5,1.1,3.1,1.7,4.6c0.3-9.7,0.6-19.5,2.7-29c0.3,9.2,0.5,18.5,0.6,27.7l0.9,0
	c-0.1-15.3-0.2-30.6,1-45.9c0.6,2.2,1.2,4.5,1.9,6.7c0.2-1.9,0.5-5.8,0.7-7.7c0.2,2.7,0.7,8.2,1,10.9c0.7-4,1.4-7.9,2.2-11.9
	c0.7,5.6,1.4,11.3,2,17c0.6-7.7,1.4-15.3,2.2-22.9c0.2,11.4,0.3,22.7,0.5,34.1c0.7-15.5,3.9-30.8,4.5-46.4
	c0.3,6.7,0.5,13.4,0.8,20.1c0.4-4.7,0.6-9.4,1-14c0.6,8.7,1.1,17.5,2.1,26.2c0.8-11.4,1.3-22.8,1.9-34.2c1.3,11,1.5,22.1,2.1,33.2
	c1.4-11.7,2.4-23.5,3.1-35.3c0.2,11.1,0.5,22.3,1.2,33.4c1.3-12.5,1.1-25.1,2.6-37.5c0.9,9.7,1.6,19.4,1.8,29.2c1-8,2.1-16,3.3-23.9
	c0.2,3,0.7,8.9,0.9,11.9c1.1-5.3,2-10.7,3.1-16c0.5,5,0.8,10,1.3,15c0.9-5.7,1.3-11.4,1.9-17.1c1.4,6,2.5,12.1,3.8,18.1
	c0.3-8.7,0.7-17.5,0.9-26.2c0.6,9,1.1,18,2.1,27c0.3-5.6,0.7-11.3,1.1-16.9c3.1,7.3,3.9,15.2,4.3,23c0.5-8,1.1-16,1.6-24.1
	c0.2,1.7,0.7,5.1,0.9,6.7c0.4-1.4,1.2-4.2,1.5-5.5c0.2,2.9,0.4,5.8,0.6,8.7c0.2-1.7,0.6-5.1,0.7-6.7c0.5,1.5,1,3,1.5,4.4
	c0.8-4.5,1.6-9,2.5-13.5c0.9,3.3,2,6.6,3.1,9.9c0.3-2.8,0.8-8.4,1.1-11.2c1.2,3.6,2.5,7.2,3.6,10.8c0.1-4.6,0.2-9.2,0.4-13.8
	c4.2,8.4,4,18,4.4,27.2c0.5-9.7,1.2-19.4,2-29.1c0.2,3.1,0,6.2,0.3,9.3c0.6-0.6,1.3-1.2,2-1.8c0.4,3.4,0.1,6.5,0.8,10
	c1.2-4.1,2-8.2,3.2-12.3c0.1,1.7,0.4,5,0.6,6.7c0.6-2.7,1.2-5.4,1.8-8.1c0.9,5,1.7,10.1,2.4,15.1c0.7-6.7,1.6-13.4,2.8-20
	c0.6,3.4,0.9,6.8,1.3,10.2c1.1-1.3,2.2-2.6,3.4-3.7c0.7,2.1,1.4,4.1,2,6.2c0.2-2,0.7-5.9,0.9-7.8c3.5,18.3,1.3,37.1,2.5,55.7
	c0.5-6.7,0.7-13.4,1.2-20.1c0.2,23.9,0.6,47.8,1.9,71.6c0.3-12.5,0.3-24.9,0.8-37.4c3.1,7.2,3.4,15.1,3.6,22.8
	c-0.4,38.4,1.7,76.8,1,115.2l1,0c-0.1-15.3-0.1-30.5,0.7-45.8c0.7-21.6-0.2-43.2,0.9-64.8c0.4,14.5,0.4,28.9,0.9,43.4
	c0.4-12.5,0.6-24.9,1-37.4c0.9,8.4,1.5,16.8,2.3,25.2c0.3-16.8,0-33.7,0.8-50.5c0.6,27.9,1.1,55.9,3.1,83.8
	c0.9-21.2-0.9-42.5,1.7-63.6c0.7,12.6,0.7,25.2,0.7,37.9l1,0.1c0.1-23.7-0.5-47.5,0.4-71.2c0.4,11.5,0.7,22.9,1.7,34.4
	c0.6-10.4,1-20.9,1.6-31.3c0.3,16.1,0.2,32.3,0.9,48.4c0.6-17.5,0.3-35,0.8-52.4c0.3,4,0.9,12,1.2,16c2.9-12.2,4.6-24.7,6.9-37.1
	c0.4,1.7,1.1,5,1.5,6.6c0.2-8.3,0.3-16.7,0.7-25c0.3,6,0.5,12.1,0.9,18.1c0.5-2.7,0.9-5.3,1.4-8c0.8,5.3,1.2,10.6,1.9,16
	c0.2-7,0.5-14,0.8-21.1c2.4,10.6,2.5,21.4,3.1,32.2c0.3-12.8,0.4-25.5,1.6-38.2c0.4,3,1.1,9,1.5,12c0.4-6.1,0.7-12.1,1.2-18.1
	c0.9,7.7,1.2,15.4,1.6,23.1c0.3-2.7,0.9-8.2,1.2-11c0.4,4.3,0.6,8.7,1,13c0.5-9.7,1-19.4,2-29c0.3,7.7,0.5,15.3,0.9,23
	c0.3-4,0.6-8,1-12c0.3,1.7,0.9,5.1,1.2,6.9c0.7-4.6,1.4-9.2,2.1-13.9c0.1,10.4,0.4,20.7,0.7,31.1c0.4-8.7,0.8-17.4,1.1-26.2
	c0.3,9.1,0.6,18.1,0.9,27.2c0.4-10.4,0.6-20.8,1.9-31.2c0.5,7.7,0.8,15.4,1.3,23.1c0.4-8.4,0.5-16.8,1-25.2
	c0.3,11.1,0.5,22.2,1,33.3c0.4-8.1,0.5-16.1,0.9-24.2c0.6,7,1.1,14.1,1.9,21.1c0.5-5,0.8-10,1.4-15c0.2,10.8,0.4,21.5,0.7,32.2
	c0.4-5.7,0.8-11.4,1.3-17.1c0.6,22.5-0.1,45,0.6,67.5c0.4-4,1.1-12,1.5-16c1.3,11,1.4,22.1,2.3,33.1c0.5-1.4,1.4-4.3,1.8-5.7
	c0.1,10,0.2,20,0.6,30c0.4-12.4,0.6-24.9,1.1-37.3c1.3,32.6-0.6,65.3,1.1,98c0.5-16.5,0.2-33,1-49.5c0.5,13.3,0.4,26.6,0.3,39.9
	l1.1,0c0.3-33.8-0.8-67.7,0.6-101.5c1,24.6-0.3,49.2,1,73.7c0.3-9.7,0.5-19.5,0.9-29.2c0.4,7,0.7,14,1.1,21.1
	c0.5-11.1,0.9-22.1,2.2-33.1c0.2,8.2,0.3,16.4,0.4,24.6l0.8,0c0.1-10.3,0.3-20.5,0.8-30.8c0.8,21.9-0.3,43.8,1,65.6
	c1.1-26.6-0.5-53.2,1-79.8c0.9,23.2-0.3,46.5,1,69.7c0.4-13.5,0.4-26.9,1-40.4c0.4,14.8,0.3,29.6,1,44.4c1.2-30.3-0.6-60.6,1-90.9
	c0.5,38,1,76.1,2,114.1c0.9-47,0.1-93.9,0.3-140.9h1.1c0.3,59.1-0.8,118.2,0.5,177.3c1.4-34.3-0.6-68.7,1.1-103
	c0.6,18.5,0,37,1,55.5c0.5-32.7,0.9-65.3,2-98c1.2,40-0.6,80.1,1,120.2c1.3-38-0.6-76.1,1-114.1c1.2,36.3-0.6,72.7,1,109.1
	c0.5-39.1,0.9-78.1,2-117.1c1.4,41.1-0.6,82.2,1.1,123.2c0.9-39.6,0.1-79.1,0.4-118.7h1.1c0.3,35.5-0.8,71.1,0.6,106.6
	c0.8-38.4,1.1-76.8,2.1-115.1c1.2,43.8-0.6,87.6,0.9,131.3c1.4-41.1-0.7-82.2,1.1-123.2c1.2,30.3-0.6,60.6,1,90.9
	c0.5-47.1,0.4-94.3,1.9-141.4c1.4,47.8-0.7,95.6,1.1,143.4c1.2-35-0.6-70.1,1-105c1.1,30-0.5,60,1,89.9c1.2-33-0.6-66.1,1-99.1
	c3.5,21.4,0.1,43.2,2,64.7c0.7-19.1,0.3-38.3,0.7-57.5c0.8,7,1.7,13.9,2.6,20.9c0.9-14.7,1.3-29.5,1.8-44.2
	c0.4,6.4,0.7,12.7,1.1,19.1c0.3-9.4,0.5-18.8,1-28.2c0.7,15.8,1.2,31.6,1.9,47.4c0.7-15.8,1.3-31.6,2.1-47.4
	c0.5,17.7,0.3,35.3,0.3,53h1.1c0-22.1-0.5-44.1,0.5-66.1c0.7,11.8,1.1,23.6,2.1,35.3c0.3-7.7,0.6-15.5,0.9-23.2
	c0.2,8.7,0.9,17.4,1.2,26.2c0.1-5.9,0.2-11.9,0.3-17.8c0.4,0.5,1.3,1.6,1.7,2.1c0.6-3.2,1.4-6.3,2.2-9.4c0.3,8.3,0.5,16.7,0.9,25.1
	c0.4-14.2,0.2-28.4,2.1-42.4c0.4,14.5,0.3,29,0.9,43.5c0.6-18.5,0-37,2.1-55.4c0.3,10.7,0.5,21.4,0.9,32.2
	c0.8-8.7,1.5-17.5,2.2-26.2c0.3,11.7,0.3,23.5,2,35.2c0.4-11,0.5-22.1,0.9-33.1c0.4,9.1,0.8,18.3,1.5,27.4c2-9.3,2.3-18.9,2.8-28.4
	c0.3,7.7,0.5,15.4,0.9,23.1c0.4-5,0.5-10,0.8-15c0.5,9,1,18.1,2.2,27c0.4-14.4,0.4-28.8,1-43.2c0.4,8.4,0.5,16.7,0.9,25.1
	c1.3-13.4,1.7-26.8,2.2-40.3c0.5,18.5,0.9,37,2,55.5c0.4-9.7,0.5-19.5,1-29.2c0.3,9.4,0.5,18.8,0.9,28.2c1-10.7,1.9-21.5,4-32.1
	c0.2,1.7,0.7,5,0.9,6.7c0.3-1.4,0.9-4.3,1.2-5.8c1.1,6.3,2.2,12.6,3.3,18.8c0.1-7.6,0.2-15.3,0.5-22.9c0.4,2.7,1.1,8.2,1.4,10.9
	c0.4-3.3,0.3-6.7,0.8-9.9c0.7,4.8,1.5,9.7,2.5,14.5c0.6-0.5,1.7-1.4,2.3-1.9c0.1,2.9,0.2,8.6,0.3,11.5c0.5-7.4,0.9-14.9,1.5-22.3
	c0.9,5.4,1.2,10.8,1.8,16.2c0.2-7.7,0.4-15.4,0.6-23.1c0.6,7.7,1.1,15.4,2,23.1c0.7-5.4,1.3-10.7,2.1-16.1c1.6,12,1.7,24.2,2.1,36.3
	c0.5-3,0.2-6.1,1-9c0.7,3.6,1.3,7.3,2.1,10.9c1.3-9.7,2.4-19.4,4.2-29c2.2,26.2,0.8,52.5,3.1,78.6c0.4-21.5,0.4-43,1.4-64.4
	c0.4,1.4,1.3,4.2,1.8,5.6c0.2-7.3,0.4-14.6,0.6-21.9c1.3,27.2-0.4,54.5,1.1,81.8c0.8-21.5-0.2-43.1,1-64.6c0.5,15.3-0.2,30.6,2,45.8
	c2.2-10,1.6-20.4,2.2-30.6c0.3,16.8,0.1,33.7,0.9,50.5c0.5-16.1,0.3-32.3,0.9-48.4c1.6,14.4,1.5,28.9,2,43.4
	c2.3-20.5,1-41.1,2.1-61.6c0.4,14.5,0.4,29,1,43.4c1.2-14.4,1.5-28.9,2.2-43.4c0.6,19.5-0.2,39.1,2.1,58.5
	c0.7-21.9-0.3-43.8,0.9-65.6c0.7,19.5-0.1,39.1,1.2,58.7c3.2-25.8-0.2-52,1.9-77.9c1.3,24.9-1.3,49.9,1.8,74.7
	c0.9-19.2,0.2-38.4,1.3-57.5c0.7,20.2-0.1,40.4,0.9,60.6c0.7-21.2,1.1-42.4,2-63.6c1.5,12.1,1.6,24.2,2.2,36.3
	c0.4-16.2,0.3-32.3,0.8-48.5c0.7,5.3,1.4,10.6,2,15.9c0.6-2.9,1.4-5.8,2.1-8.7c0.3,2,0.9,5.9,1.2,7.9c0.3-6.4,0.5-12.8,0.9-19.1
	c1.2,8.7,1.5,17.4,2,26.2c0.3-7.4,0.5-14.7,0.9-22.1c0.3,8.7,0.7,17.5,1.1,26.2c0.8-9.4,1.4-18.8,2-28.2c1,10.7,1.5,21.4,2.1,32.1
	c0.4-15.5,0.3-30.9,1-46.4c1.2,11.4,1.5,22.9,2,34.3c0.4-6.1,0.7-12.1,1.2-18.1c0.8,6.7,1.2,13.4,1.9,20.1
	c0.7-12.7,1.3-25.5,1.8-38.2c0.4,12.1,0.6,24.3,1.4,36.4c1.2-10.1,1.1-20.3,1.6-30.4c0.4,4.1,0.8,8.1,1.3,12.2
	c0.8-2.3,1.4-4.7,2.4-7c0.6,5.9,1,11.8,1.6,17.7c0.4-11,0.8-22,2-33c0.5,8.7,0.9,17.4,1.6,26c0.7-3.7,1.4-7.4,2.2-11
	c0.2,4,0.7,12.1,1,16.1c0.4-5.3,0.8-10.7,1.2-16c0.2,4,0.6,12,0.8,16c0.7-7,1.5-13.9,2.3-20.9c0.2,13,0.6,26.1,1.8,39.1
	c0.4-12.1,0.6-24.2,1.1-36.3c0.3,8,0.3,16,0.5,24c0.7-4,1.6-7.9,2.5-11.9c0.5,16.5,0.3,33,0.9,49.4c0.4-11.1,0.6-22.2,1.1-33.3
	c1.2,31-0.5,62,1.1,92.9c1.1-25.2-0.9-50.6,2-75.7c1.2,34-0.5,68,1,101.9c1.4-39.4-0.6-78.8,1.1-118.2c0.8,32.7-0.2,65.3,2.1,98
	c1.1-35-0.7-70,0.9-105c1.1,31.6-0.5,63.3,0.9,94.9c2.1-22.8,1-45.8,2-68.7c1.3,36-0.6,72.1,1.1,108.1c1.1-26.3-0.4-52.5,1-78.8
	c1.2,34.7-0.6,69.4,1,104c0.7-45.8,0.1-91.6,2-137.4c1.3,49.8-0.7,99.7,1,149.5c0.9-41.6,0.1-83.2,0.3-124.8h1.1
	c0.7,42.3-1.8,84.6,1.7,126.8c1.1-33.3-0.7-66.7,0.9-100c1.2,38.4-0.6,76.8,1,115.2c1-27.9-0.3-55.9,0.9-83.8
	c1.2-28.6-0.4-57.3,1.1-85.9c0.9,58.1,0.1,116.2,0.4,174.3h1.1c0.3-38.9-0.8-77.8,0.6-116.7c1.2,31.3-0.6,62.6,1.1,93.9
	c0.6-18,0.1-36,0.8-54c1.5-33.5-0.4-67.1,1.1-100.6c1.4,49.5-0.7,99,1.1,148.5c0.9-23.2-0.2-46.5,0.9-69.7c1.2-31-0.4-62,1-92.9
	c1,52.7,0.2,105.4,0.4,158.1h1.1c0.3-43.9-0.8-87.9,0.5-131.8c1.4,37.7-0.6,75.4,1.1,113.1c1.1-29.8-0.4-59.6,0.8-89.3
	c1.1-21.7,0-43.5,1.1-65.2c1.4,52.8-0.6,105.7,1,158.6c1.1-27.4-0.3-54.8,0.9-82.2c0.8-19.4,0.2-38.8,1.2-58.2
	c1.2,33.7-0.7,67.3,1,101c1.5-27.3-1.5-54.7,1.8-81.9c0.8,15.1,0.5,30.3,1.2,45.5c0.9-22.9,0-45.8,0.8-68.6c1,10,2,20,3.3,30
	c0.3-4.3,0.6-8.6,1-12.9c0.4,5,0.7,10,1.1,15c0.2-14.5,0.2-28.9,0.8-43.4c0.5,15.8,1.1,31.6,2.2,47.4c0.4-15.1,0.2-30.3,0.9-45.4
	c0.5,16.1,0.3,32.3,0.9,48.5c0.2-5.7,0.4-11.4,0.7-17c0.5,1.6,1,3.1,1.6,4.7c1-10.3,1.4-20.7,1.9-31c0.4,11.7,0.8,23.5,2.1,35.1
	c0.6-16.7-0.5-33.6,2.1-50.2c0.2,8.3,0.2,16.6,0.3,24.9c0.5-1.4,1.4-4.2,1.9-5.5c0.1,9.3,0.3,18.6,0.6,28c0.4-6.4,0.7-12.8,1.2-19.1
	c0.3,8.4,0.4,16.7,0.7,25.1c2.7-15.3,2.8-30.9,3-46.4c0.7,5.7,1.3,11.4,2.1,17c0.4-4.7,0.6-9.3,1-14c0.6,3,0.3,5.9,1.2,9
	c0.3-7.4,0.5-14.7,0.9-22.1c1.4,9,1.6,18.1,2.1,27.2c0.3-9.4,0.5-18.9,0.9-28.3c1.1,8.7,1.5,17.5,2.1,26.2
	c0.2-11.8,0.4-23.5,1.7-35.2c0.6,9.8,1,19.6,2.4,29.4c1.7-7.3,2.2-14.8,2.8-22.2c0.8,5.3,1.7,10.7,3.1,16c0.2-3,0.4-6,0.7-8.9
	c1.1,2.2,2.1,4.4,3.1,6.6c0.5-1.1,1.1-2.3,1.7-3.4c0.2,4.6,0.3,9.2,0.6,13.8c0.3-3.2,0.2-6.4,0.6-9.5c1,0.5,2,1.1,3,1.7
	c0.4-3.7,0.8-7.5,1.3-11.2c0.4,5.3,0.7,10.6,1.2,16c0.5-7,1-14.1,1.8-21.1c0.4,4.7,0.6,9.3,1.1,14c0.7-3.6,1.4-7.3,2.2-10.9
	c0.4,6.7,0.6,13.4,1,20.1c0.3-7.7,0.5-15.4,0.9-23.2c0.8,8.7,1.5,17.4,2.1,26.1c0.3-8.7,0.6-17.5,1-26.2c1.1,12.4,1.5,24.9,2.1,37.3
	c0.4-8.4,0.6-16.8,1-25.2c0.4,8.4,0.7,16.9,1.3,25.3c1.2-7.3,1.1-14.8,1.6-22.2c0.6,9.4,1.3,18.8,2.2,28.2
	c0.3-14.8,0.2-29.6,0.8-44.4c0.4,15.1,0.2,30.3,1.7,45.4c1.1-3.5,1.8-7.1,2.7-10.7c0.5,11.7,1.8,23.3,2.8,34.9
	c0.3-12.1,0.7-24.2,1.2-36.3c0.6,0.4,1.2,0.7,1.9,1.1c0.4-1.3,0.8-2.5,1.3-3.7c0.4,26.8-0.6,53.7,0.6,80.5c0.8-22.9-0.1-45.8,2-68.6
	c0.3,10.4,0.5,20.8,0.9,31.1c1.8-18.8,1.3-37.7,4.4-56.4c0.6,30.4,0.1,60.9,0.2,91.3l1,0c-0.2-28.1,0.9-56.2,1.7-84.3
	c1.2,50.5-0.7,101,1,151.5c1.1-34.8-0.3-69.7,0.6-104.6c0.8-16.6,0.6-33.3,1.3-50c1,39.2,0.2,78.4,0.4,117.7h1.1
	c0-30.3-0.1-60.6-0.1-90.9h1.1c0.3,35.5-0.8,71.1,0.6,106.6c0.8-39.9,1.9-79.8,1.4-119.7l1.1,0c0.3,40.6-0.8,81.2,0.6,121.7
	c1-45.5-0.6-90.9,2.1-136.4c0.8,29.8,0.1,59.6,0.3,89.4l1.1,0c0-20.4-0.4-40.8,0.5-61.1c0.9,6.7,1.5,13.3,2.3,20
	c0.1-14.1,0.1-28.2,1.3-42.3c0.6,2.7,1.2,5.3,1.8,8c0.1-10.7,0.3-21.4,0.6-32.1c0.3,8.7,0.6,17.4,0.9,26.1c0.3-2.7,0.9-8.2,1.2-10.9
	c0.2,1.7,0.5,5.1,0.7,6.7c0.5-1.5,1.1-3.1,1.7-4.6c0.2,6.3,0.4,12.6,0.8,18.9c0.3-10.1,0.4-20.1,0.7-30.2c0.4,7.1,0.9,14.1,1.5,21.1
	c0.9-7,1.2-14.1,1.7-21.1c0.2,2.7,0.7,8.2,0.9,10.9c0.6-4.6,1.3-9.3,2-13.9c0.4,6,0.8,12,1.2,18c0.3-3.3,0-6.6,0.4-9.8
	c1,1.1,2,2.2,3,3.4c0.1-9,0.2-17.9,0.4-26.8c0.4,10.8,0.6,21.5,1.1,32.3c0.4-6.4,0.6-12.8,1.1-19.1c0.3,9.1,0.5,18.1,0.9,27.2
	c0.6-11.1,1.2-22.2,2.1-33.3c0.4,5,0.5,10,0.9,15.1c0.4-2.7,0.8-5.3,1.2-8c0.3,4.3,0.5,8.7,0.9,13c1.3-3.6,2.5-7.2,3.7-10.9
	c0.5,4.6,0.8,9.2,1.4,13.8c0.2-2.1,0.4-4.1,0.6-6.1c1-0.6,2-1.3,3-1.9c0.1,6.4,0.1,12.8,0.3,19.3c0.5-6.1,0.8-12.1,1.4-18.2
	c1.3,12.1,1.2,24.2,1.9,36.3c1.5-13.7,1.8-27.5,3-41.3c0.3,11.1,0.4,22.2,1.7,33.2c0.5-6,0.9-12,1.5-18.1c0.4,19.3,0.2,38.7,0.2,58
	l1.1,0c0.2-28.8-0.6-57.5,0.4-86.3c0.8,20.5,1.2,41,2.2,61.5c0.8-23.5-0.3-47.1,0.9-70.7c1,38.4-0.4,76.8,2.2,115.1
	c0.5-21.9,0.1-43.8,2-65.6c0.6,19.9-0.3,39.8,1.1,59.7c1.1-12.5,1.3-25,1.8-37.5c1.1,31.3-0.6,62.6,1,93.9c1.2-34.7-0.5-69.4,1-104
	c1.3,31-0.5,62,1.1,92.9c1.1-36,1-72.1,2-108.1c1.2,38.7-0.7,77.4,1,116.1c1.1-27.9-0.5-55.9,1-83.8c0.8,21.2-0.1,42.4,0.9,63.6
	c0.5-16.1-0.1-32.3,2-48.3c0.6,17.4,0.3,34.9,1,52.4c1.4-32.6-0.6-65.3,1.1-98c1.2,33.7-0.7,67.3,1,101c0.6-18.2,0.2-36.3,0.5-54.5
	c0.4,2.7,1.1,8.2,1.5,10.9c0.5-8,0.9-16.1,1.7-24.1c0.3,8.7,0.6,17.3,0.8,26c0.4-1.4,1.3-4.2,1.7-5.6c0.3,4.3,0.6,8.5,0.9,12.8
	c0.4-19.8-0.1-39.7,1.9-59.5c0.4,15.3,0.3,30.6,0.3,45.9h1.1c-0.1-15.3-0.1-30.7,0.3-46c0.4,2.6,0.9,5.3,1.4,7.9
	c0.8-8.3,1.4-16.7,2-25c0.3,11.1,0.4,22.2,0.9,33.3c0.4-10.1,0.5-20.2,1-30.2c0.4,12.4,0.5,24.9,1,37.3c1.2-13.1,1.5-26.2,2.1-39.4
	c0.8,22.9-0.3,45.8,1,68.7c0.9-23.2-0.3-46.5,1-69.7c0.4,12.8,0.5,25.6,0.9,38.4c0.4-5.7,0.7-11.4,1.1-17.1c0.6,6.3,1.1,12.7,2,19.1
	c0.4-6.7,0.5-13.4,0.8-20c0.4,2.7,1.1,8.2,1.4,10.9c0.2-12.4,0.3-24.9,0.8-37.3c0.4,9.7,0.6,19.5,1.1,29.2c2.8-18.4,2.3-37,3.1-55.5
	c0.6,15,0.3,30.1,0.2,45.2c0.7-1.2,1.4-2.3,2.2-3.4c0.2,5.9,0.4,11.9,0.7,17.8c0.3-13.4,0.3-26.9,0.9-40.3
	c0.4,6.7,0.6,13.4,1.1,20.1c0.3-9.1,0.6-18.1,1-27.2c0.3,6.7,0.6,13.4,0.9,20.1c0.3-7,0.6-14.1,0.9-21.1c0.3,4,1,12.1,1.3,16.1
	c1-6,2-12,3-18.1c0.3,6.7,0.6,13.4,1,20.1c0.3-11,0.3-22.1,0.3-33.1c1.2,3.5,2.4,7,3.9,10.4c1.4-1.9,2.8-3.9,4.1-5.9
	c0.6,3.9,1.3,7.8,2.2,11.7c0.5-0.8,1.5-2.3,2-3.1c1.2,21.3,0.2,42.8,2.5,64.1c1,19.3,0.2,38.6,0.7,57.9c0.5-2.7,1.1-5.3,1.6-8
	c0.1,14.8,0,29.6,0.8,44.3c0.5-13.3,0.3-26.6,0.3-39.9l1.1,0c-0.1,18.7-0.4,37.4,0.6,56.1c0.9-23.5-0.4-47.2,1-70.7
	c1.2,31.3-0.6,62.6,1.1,93.9c1.1-28.6-0.5-57.2,0.9-85.8c0.9,22.5-0.1,45.1,1,67.6c0.9-24.1,0.3-48.1,0.4-72.2l1.1,0
	c0,20.4-0.5,40.8,0.6,61.2c1.7-7.8,1.3-15.9,1.5-23.8c0-25.4-0.7-50.9,0.5-76.3c1.3,38-0.6,76.1,1,114.1c1.3-41.4-0.6-82.8,1-124.2
	c1.4,34.3-0.6,68.7,1.1,103c1.2-40.4-0.7-80.8,1-121.2c1.3,47.1-0.7,94.3,1,141.4c0.9-28.1,0.1-56.2,0.3-84.3l1.1,0
	c-0.1,18.7-0.4,37.4,0.6,56c0.4-13.1,0.4-26.2,1.1-39.4c0.4,15.1,0.2,30.3,1,45.4c0.4-14.8,0.3-29.6,1-44.4
	c0.5,16.5,0.2,33,0.9,49.5c0.7-19,0.4-38,0.4-57.1l1.1,0c-0.1,13.6,0,27.3,0.7,40.9c-0.1-35.4,2.6-70.7,3-106
	c0.4,8.1,0.6,16.1,1.1,24.2c0.3-11.1,0.5-22.2,1-33.3c0.4,8.4,0.6,16.8,1,25.2c0.4-16.8,1-33.6,2.1-50.4c0.5,12.1,0.9,24.2,1.7,36.2
	c0.8-3.3,1.5-6.6,2.4-9.9c0.1,9,0.5,18.1,0.7,27.1c0.3-8.7,0.8-17.4,1.2-26.2c0.3,6.4,0.6,12.7,1,19.1c0.3-7.4,0.6-14.8,1-22.2
	c0.6,10.7,1.4,21.5,2,32.2c1.8-19.1,1.2-38.3,2-57.5c1.3,31-0.5,62,1.1,92.9c0.8-21.2-0.1-42.4,0.8-63.6c2.5,30.2,2.3,60.6,4.3,90.8
	c0.5-23.6,1-47.1,2.1-70.7c1.1,33.7-0.7,67.3,1,101c0.8-44.4-0.2-88.9,2.1-133.3c0.3,32.6,0.7,65.3,1.8,97.9
	c2.2-28.2,1.1-56.5,2-84.7c3,21.8,0.6,43.8,2.1,65.7c2.3-18.8,1.1-37.7,1.7-56.6c5.8,18.6,3,38.4,4.4,57.5c0.6-26,0.2-51.9,2.2-77.9
	c2,12.7,1,25.6,1.7,38.4c0.4-6.1,0.7-12.1,1.2-18.1c0.2,12.8,0.3,25.5,0.7,38.3c0.9-4.3,1.6-8.6,2.5-12.9
	c0.1,12.1,0.2,24.1,0.8,36.2c0.7-20.2,0-40.4,0.7-60.6c0.6,3.3,0.6,6.6,1.3,10c1.2-14.7,1.4-29.5,1.9-44.3c1.5,21.8,1.2,43.7,2,65.6
	c0.9-22.9,3-45.7,3.1-68.6c0.8,22.4,0.3,44.8,0.4,67.1l1,0c0-10.3,0.1-20.5,0.4-30.8c0.4,4,0.9,8,1.4,12c0.3-17.1,0.9-34.3,2-51.4
	c0.4,15.8,0.3,31.6,0.8,47.4c0.7-9.2,0.6-18.6,2.9-27.6c1.4-5.8,1.7-11.8,2.3-17.8c0.4,10.4,1.3,20.8,3.1,31
	c1.9-13.7,1.2-27.6,2.3-41.4c1.2,7.2,1.4,14.5,2.3,21.7c0.8-9.2,0.9-18.4,1.4-27.6c0.4,4.3,0.7,8.7,1.2,13
	c0.3-8.1,0.5-16.1,0.9-24.1c0.4,7.7,0.7,15.5,1.2,23.2c1-7,1.3-14.1,2-21.1c0.3,6,0.5,12,0.9,18.1c0.4-4.7,0.6-9.4,1-14
	c0.4,5.1,0.7,10.2,1.2,15.3c0.7-6.4,1.7-12.8,2.6-19.2c1.3,5.6,2.3,11.2,3.3,16.8c0.4-3.3,0.2-6.7,0.8-10c0.7,2.4,1.4,4.7,2.2,7.1
	c0.5-3,0-6.1,0.9-9c0.6,3,0.1,5.9,1.1,8.9c0.3-7.4,0.6-14.7,1-22.1c0.3,15.1,0.2,30.3,0.8,45.4c0.4-11.1,0.6-22.2,1.1-33.3
	c0.3,5,0.3,9.9,0.6,14.9c0.5-1.4,1.4-4.2,1.8-5.6c0.1,19.1-0.4,38.2,0.4,57.3c1.4-23.5,1.3-47.1,2.3-70.6c0.6,15,0.1,30,0.4,45
	c0.1,13.7,2.1,27.2,2.7,40.8c0.2-14.5,0.2-28.9,0.9-43.4c0.4,11.4,0.5,22.9,1,34.4c1.3-10.7,1.6-21.5,2.2-32.3
	c0.4,18.2,0,36.3,0.9,54.5c0.5-18.9,0.4-37.7,2.1-56.5c1,21.8-1.3,43.8,2,65.5c1-28.6-0.6-57.2,0.9-85.7c1,23.5-0.7,47.1,2.1,70.5
	c0.3-15.8,0.2-31.5,0.8-47.3c1.5,17.5,1.3,35,2.2,52.5c0.7-17.8-0.5-35.7,2-53.3c0.4,15.7,0.2,31.5,0.8,47.2
	c0.3-6.9,0.5-13.8,0.8-20.6c0.4,0,1.3,0,1.7,0c0.1,10.2,0.3,20.5,0.7,30.8c0.7-24.6,0.9-49.1,2.1-73.7c0.3,13.1,0.4,26.2,0.9,39.4
	c1.7-14.1,1.5-28.3,2.1-42.4c0.4,16.2,0.3,32.3,1,48.5c0.4-13.1,0.4-26.2,0.8-39.3c1.3,20.8,1.4,41.7,2.1,62.5
	c0.5-25.6,1-51.2,2.1-76.7c0.5,18.2,0.1,36.3,0.8,54.5c1.4-17.5,1.4-35,2.2-52.5c1.3,11.7,1.4,23.5,1.8,35.3
	c0.3-12.8,0.4-25.6,1.8-38.3c0.6,12.8,0.7,25.6,1.2,38.3c0.5-17.8,1.1-35.6,1.9-53.4c0.4,10.4,0.7,20.9,1.3,31.3
	c0.6-4.3,1.1-8.6,1.8-12.9c0.1,2.5,1.6,5.2,2.1,7.7c0.5-3.3,0.3-6.7,1.1-10c0.2,4,0.4,8,0.6,12c0.3-1.5,0.7-3,1.1-4.6
	c0.9,9,4.6,17.4,5.6,26.4c0.5,12.3,0.2,24.5,0.8,36.8c0.4-10.1,0.5-20.3,1.1-30.4c0.9,3,1.1,5.9,2.3,9c0.2-7.7,0.3-15.4,0.6-23
	c0.5,10.8,0.2,21.8,2.7,32.3c0.4-3,1.3-9.1,1.8-12.1c1.4,11.7,1.2,23.5,1.8,35.2c0.4-17.1,0.7-34.3,1.9-51.4
	c1.5,13.8,2,27.6,3.2,41.3c0.3-14.8,0.2-29.6,0.9-44.4c0.3,9.7,0.3,19.4,0.5,29.1c0.5-1.4,1.4-4.2,1.8-5.6c0.2,9,0.4,18,0.8,27
	c0.7-20.9-0.2-41.8,1.9-62.6c1.7,11,2.5,22.1,3.2,33.3c0.2-8.1,0.4-16.1,0.8-24.2c2.7,8.5,2.7,17.4,3.3,26.2
	c0.1-9.1,0.3-18.1,0.6-27.2c0.3,1.7,0.9,5.1,1.2,6.8c0.6-6.3,1.1-12.6,1.9-18.9c0.7,4.8,1.1,9.5,1.9,14.3
	c0.8-11.2,0.9-22.4,1.3-33.6c0.3,9.1,0.7,18.1,1.1,27.2c0.3-10.8,0.5-21.5,0.9-32.3c1.6,12,2,24.1,3.2,36.2
	c0.2-7.3,0.4-14.5,0.7-21.8c0.2,1.3,0.7,3.8,0.9,5.1c1.4,0.5,2.8,1.1,4.2,1.7c0-4,0.1-8,0.2-12c0.8,11.4,1.5,22.9,2.1,34.3
	c2.1-14.5,1.3-29.3,1.4-43.9l0.9,0c0,11.9,0.1,23.9,0.7,35.8c0.4-9.5,0.6-18.9,1.2-28.4c0.7,0.4,1.4,0.8,2.2,1.3
	c0.4-3.4,1-6.7,1.6-10.1c0.3,3,0.7,5.9,1.1,8.9c0.6-4,1.2-7.9,1.9-11.9c0.3,1.7,1,5,1.4,6.7c0.5-3.3,0.2-6.6,0.9-9.9
	c0.4,3-0.4,5.8,0.4,8.9c0.7-1.2,1.3-2.4,2.1-3.7c0.1,2.7,0.3,8.2,0.4,10.9c0.7-3.3,0.8-6.8,1.7-10.1c3.9,24.1-0.1,48.7,3.6,72.8
	c0.3-10,0.1-20,0.1-30c0.5,1.4,1.4,4.1,1.8,5.5c0.5-2.5,0.9-5.1,1.4-7.6c0,4.1,0,8.3,0,12.4c0.3-0.9,0.6-1.8,1-2.6V277.9
	C2625.8,277.4,2625.2,276.8,2624.5,276.3L2624.5,276.3z"/>
</svg>
