<?xml version="1.0" encoding="utf-8"?>
<!-- Generator: Adobe Illustrator 22.1.0, SVG Export Plug-In . SVG Version: 6.00 Build 0)  -->
<svg version="1.1" id="Capa_1" xmlns="http://www.w3.org/2000/svg" xmlns:xlink="http://www.w3.org/1999/xlink" x="0px" y="0px"
	 viewBox="0 0 477.8 477.8" style="enable-background:new 0 0 477.8 477.8;" xml:space="preserve">
<style type="text/css">
	.st0{fill:#BCCCE0;}
</style>
<g>
	<g>
		<path class="st0" d="M238.9,0C106.9,0,0,106.9,0,238.9s106.9,238.9,238.9,238.9s238.9-106.9,238.9-238.9
			C477.7,107,370.8,0.1,238.9,0z M221.8,221.8h34.1c37.7,0,68.3,30.6,68.3,68.3v17.1c0,37.7-30.6,68.3-68.3,68.3v17.1
			c0,9.4-7.6,17.1-17.1,17.1c-9.4,0-17.1-7.6-17.1-17.1v-17.1c-37.7,0-68.3-30.6-68.3-68.3c0-9.4,7.6-17.1,17.1-17.1
			c9.4,0,17.1,7.6,17.1,17.1c0,18.9,15.3,34.1,34.1,34.1h34.1c18.9,0,34.1-15.3,34.1-34.1v-17.1c0-18.9-15.3-34.1-34.1-34.1h-34.1
			c-37.7,0-68.3-30.6-68.3-68.3v-17.1c0-37.7,30.6-68.3,68.3-68.3V85.2c0-9.4,7.6-17.1,17.1-17.1c9.4,0,17.1,7.6,17.1,17.1v17.1
			c37.7,0,68.3,30.6,68.3,68.3c0,9.4-7.6,17.1-17.1,17.1c-9.4,0-17.1-7.6-17.1-17.1c0-18.9-15.3-34.1-34.1-34.1h-34.1
			c-18.9,0-34.1,15.3-34.1,34.1v17.1C187.7,206.6,203,221.8,221.8,221.8z"/>
	</g>
</g>
</svg>
